<?xml version="1.0" standalone="no"?>
<!DOCTYPE svg PUBLIC "-//W3C//DTD SVG 1.1//EN" "http://www.w3.org/Graphics/SVG/1.1/DTD/svg11.dtd" >
<!--
2013-9-30: Created.
-->
<svg>
<metadata>
Created by iconfont
</metadata>
<defs>

<font id="iconfont" horiz-adv-x="1024" >
  <font-face
    font-family="iconfont"
    font-weight="500"
    font-stretch="normal"
    units-per-em="1024"
    ascent="896"
    descent="-128"
  />
    <missing-glyph />

    <glyph glyph-name="01" unicode="&#58881;" d="M512 735c-246.854 0-447-200.146-447-447 0-246.853 200.147-447 447-447 246.854 0 447 200.147 447 447 0 246.854-200.146 447-447 447zM512 705.2c230.048 0 417.199-187.152 417.199-417.2 0-104.822-38.951-200.671-103.018-274.034-1.603 4.685-3.203 9.385-5.021 13.968-31.080 78.547-94.129 143.471-173.474 178.365-0.218 0.087-0.421 0.159-0.626 0.262 31.647 33.38 51.189 78.367 51.189 128.002 0 102.875-83.377 186.25-186.25 186.25-102.874 0-186.25-83.375-186.25-186.25 0-49.648 19.555-94.652 51.218-128.046-0.394-0.175-0.742-0.291-1.15-0.466-78.851-34.646-141.898-99.57-172.98-178.117-1.818-4.598-3.418-9.283-5.019-13.968-64.065 73.363-103.018 169.212-103.018 274.034 0 230.048 187.152 417.2 417.2 417.2zM616.314 218.303c-9.313-8.366-19.541-15.729-30.657-21.697-21.975-11.77-47.030-18.491-73.657-18.491-26.628 0-51.714 6.722-73.686 18.507-11.117 5.968-21.316 13.315-30.629 21.682-31.909 28.664-52.135 70.091-52.135 116.26 0 86.272 70.178 156.45 156.45 156.45s156.449-70.177 156.449-156.45c0-46.17-20.224-87.597-52.135-116.261zM221.101-10.653c1.062 3.885 2.095 7.813 3.302 11.494 26.963 82.721 92.5 151.082 176.909 184.185 30.965-22.96 69.174-36.714 110.688-36.714 41.5 0 79.693 13.735 110.644 36.686 83.799-32.349 149.858-100.999 176.968-184.156 1.193-3.666 2.226-7.594 3.288-11.494-75.213-73.281-177.84-118.547-290.9-118.547s-215.687 45.266-290.899 118.546z"  horiz-adv-x="1024" />


    <glyph glyph-name="html5" unicode="&#59339;" d="M60.53888 896l82.14528-921.62048 368.76288-102.37952 369.72544 102.52288 82.30912 921.47712-902.92224 0zM784.62976 594.57536l-432.5376 0 10.30144-115.75296 411.97568 0-31.04768-347.01312-231.85408-64.24576-231.56736 64.24576-15.83104 177.52064 113.50016 0 8.04864-90.23488 125.87008-33.91488 0.28672 0.08192 125.93152 33.9968 13.06624 146.55488-391.74144 0-30.49472 341.79072 566.21056 0-10.11712-113.02912z"  horiz-adv-x="1024" />


    <glyph glyph-name="msnui-time-detail" unicode="&#59167;" d="M512.896-66.311c-248.455 0-449.862 201.415-449.862 449.862 0 248.448 201.407 449.862 449.862 449.862 248.447 0 449.862-201.414 449.862-449.862 0-248.447-201.415-449.862-449.862-449.862zM512.896 777.059c-217.325 0-393.506-176.181-393.506-393.506s176.181-393.506 393.506-393.506c217.325 0 393.506 176.181 393.506 393.506 0 217.326-176.181 393.506-393.506 393.506zM850.293 383.551c0-15.528-12.59-28.117-28.117-28.117v0h-230.1c-11.615-32.689-42.505-56.232-79.181-56.232-46.581 0-84.349 37.769-84.349 84.349 0 36.676 23.545 67.565 56.232 79.187v230.093c0 15.528 12.589 28.117 28.117 28.117s28.117-12.589 28.117-28.117v0-230.092c23.853-8.483 42.586-27.217 51.064-51.071h230.1c15.527 0 28.117-12.589 28.117-28.117zM512.896 411.668c-15.528 0-28.117-12.589-28.117-28.117s12.589-28.117 28.117-28.117 28.117 12.589 28.117 28.117-12.589 28.117-28.117 28.117zM710.878 580.367c-10.975 10.976-10.975 28.775 0 39.758 10.983 10.983 28.783 10.983 39.758 0 10.983-10.983 10.983-28.783 0-39.758-10.975-10.983-28.775-10.983-39.758 0zM274.209 582.098c-10.983 10.983-10.983 28.783 0 39.758 10.983 10.983 28.783 10.983 39.766 0 10.976-10.976 10.976-28.775 0-39.758-10.984-10.983-28.783-10.983-39.766 0zM313.754 185.529c10.976-10.975 10.976-28.774 0-39.758-10.983-10.983-28.783-10.983-39.766 0-10.976 10.983-10.976 28.783 0 39.757 10.983 10.982 28.783 10.982 39.766 0zM512.896 102.388c15.528 0 28.117-12.59 28.117-28.117s-12.589-28.117-28.117-28.117-28.117 12.59-28.117 28.117 12.589 28.117 28.117 28.117zM751.302 184.665c10.983-10.969 10.983-28.775 0-39.758s-28.783-10.983-39.766 0c-10.975 10.983-10.975 28.79 0 39.758 10.983 10.983 28.783 10.983 39.766 0zM203.617 355.436c-15.528 0-28.117 12.589-28.117 28.117s12.589 28.117 28.117 28.117 28.117-12.589 28.117-28.117-12.59-28.117-28.117-28.117z"  horiz-adv-x="1024" />


    <glyph glyph-name="groupcopy5" unicode="&#58898;" d="M544-180c-12.608 0-24.832 5.248-33.6 14.4l0 0c0 0-111.744 115.328-154.56 160.256L186.688-5.344C102.848-5.344 32 69.6 32 158.368L32 623.904C32 709.984 100.16 780 184 780l720 0c83.84 0 152-70.016 152-156.096l0-465.472c0-88.768-70.848-163.776-154.752-163.776l-174.08 0c-61.248-60.544-147.712-158.272-148.608-159.232C568.832-174.752 556.608-180 544-180zM184 716C135.488 716 96 674.656 96 623.904l0-465.472c0-53.12 42.432-99.776 90.688-99.776l196.736 0 9.472-10.048c25.664-27.328 116.608-121.344 150.592-156.352 27.776 31.04 98.048 108.672 148.416 157.44l9.344 9.024 200.064 0c48.32 0 90.752 46.656 90.752 99.776L992.064 623.904c0 50.816-39.488 92.096-88 92.096L184 716zM304 437.664c-33.152 0-59.968-27.776-59.968-62.08 0-34.304 26.88-62.08 59.968-62.08s59.968 27.776 59.968 62.08C363.968 409.888 337.152 437.664 304 437.664L304 437.664zM544 437.664c-33.152 0-59.968-27.776-59.968-62.08 0-34.304 26.88-62.08 59.968-62.08s59.968 27.776 59.968 62.08C603.968 409.888 577.152 437.664 544 437.664L544 437.664zM784 437.664c-33.152 0-60.032-27.776-60.032-62.08 0-34.304 26.88-62.08 60.032-62.08s59.968 27.776 59.968 62.08C844.032 409.888 817.152 437.664 784 437.664L784 437.664z"  horiz-adv-x="1088" />


    <glyph glyph-name="unie652" unicode="&#59136;" d="M510.08 884c-281.728 0-510.08-228.352-510.08-510.048s228.352-510.08 510.08-510.08c281.696 0 510.048 228.32 510.048 510.08s-228.352 510.048-510.048 510.048zM820.288 254.784c46.624-147.68-40.8-32.064-40.8-32.064-2.912-49.568-47.616-88.416-47.616-88.416 125.344-71.904 11.648-98.144 11.648-98.144-131.168-44.704-219.232 34.976-219.232 34.976-73.824-75.136-221.504-41.44-221.504-41.44-80.32 10.368-75.136 51.808-75.136 51.808 36.256 45.344 75.136 46.624 75.136 46.624-67.36 55.712-63.456 111.424-63.456 111.424-6.496-32.384-41.472-47.936-41.472-47.936-47.936-7.776-56.992 41.472-56.992 41.472 14.24 91.968 117.888 169.696 117.888 169.696-0.48 2.368-0.736 4.64-1.056 6.912-77.408 29.376-17.024 27.52-0.512 26.56 1.088 9.824 3.456 18.336 6.464 25.568-10.72 4.768-37.024 5.472-30.336 8.384 7.392 3.2 35.296 9.312 39.616 10.24l1.088 4.064c0 0-0.128-1.6-0.352-3.904 0.032 0 0.16 0.032 0.16 0.032l-0.128-0.736c5.888 8.16 11.04 12.256 11.04 12.256 32.384 257.792 239.648 220.192 239.648 220.192l39.488 1.92c231.232-50.56 199.168-218.56 199.168-218.56 63.168-39.84-4.864-62.176-4.864-62.176 36.928-4.864 7.776-32.064 7.776-32.064 5.824-1.952 60.224-54.4 76.768-107.84s-22.368-38.816-22.368-38.816z"  horiz-adv-x="1024" />


    <glyph glyph-name="daohangfenlei" unicode="&#58887;" d="M151.277 555.671h-46.544c-19.279 0-34.908 15.629-34.908 34.908s15.629 34.908 34.908 34.908h46.544c19.279 0 34.908-15.629 34.908-34.908s-15.629-34.908-34.908-34.908zM919.255 555.671h-628.337c-19.279 0-34.908 15.629-34.908 34.908s15.629 34.908 34.908 34.908h628.338c19.279 0 34.908-15.629 34.908-34.908s-15.629-34.908-34.909-34.908zM151.277 253.091h-46.544c-19.279 0-34.908 15.63-34.908 34.908 0 19.279 15.629 34.908 34.908 34.908h46.544c19.279 0 34.908-15.629 34.908-34.908-0.001-19.278-15.629-34.908-34.908-34.908zM919.255 253.091h-628.337c-19.279 0-34.908 15.63-34.908 34.908s15.629 34.908 34.908 34.908h628.338c19.279 0 34.908-15.629 34.908-34.908s-15.629-34.908-34.909-34.908zM151.277-49.441h-46.544c-19.279 0-34.908 15.629-34.908 34.908s15.629 34.908 34.908 34.908h46.544c19.279 0 34.908-15.629 34.908-34.908s-15.629-34.908-34.908-34.908zM919.255-49.441h-628.337c-19.279 0-34.908 15.629-34.908 34.908s15.629 34.908 34.908 34.908h628.338c19.279 0 34.908-15.629 34.908-34.908s-15.629-34.908-34.909-34.908z"  horiz-adv-x="1024" />


    <glyph glyph-name="html51" unicode="&#59214;" d="M60.544 896l82.144-921.632L511.424-128l369.728 102.528L963.456 896 60.544 896zM784.64 594.56l-0.384 0L352.096 594.56l10.304-115.744L774.368 478.816l-31.04-347.008L511.968 67.648l-0.224-0.064-0.16 0-0.128 0-231.584 64.256-15.84 177.504 113.504 0 8.064-90.24 125.856-33.92 0.288 0.064 125.92 33.984 13.056 146.56L259.008 365.792 228.512 707.584l566.208 0L784.64 594.56z"  horiz-adv-x="1024" />


    <glyph glyph-name="shijian1" unicode="&#58918;" d="M512 18.112776c-49.759287 0-97.203856 9.636474-142.331659 28.907377-45.124733 19.269879-84.028788 45.245484-116.715235 77.932953-32.68747 32.686447-58.664098 71.590502-77.932953 116.715235-19.269879 45.128827-28.907377 92.573395-28.907377 142.331659s9.636474 97.203856 28.907377 142.331659c19.269879 45.124733 45.245484 84.031858 77.932953 116.715235 32.686447 32.68747 71.590502 58.664098 116.715235 77.932953 45.128827 19.269879 92.573395 28.907377 142.331659 28.907377s97.203856-9.636474 142.331659-28.907377c45.124733-19.269879 84.032882-45.245484 116.715235-77.932953 32.68747-32.686447 58.664098-71.590502 77.932953-116.715235 19.269879-45.128827 28.907377-92.573395 28.907377-142.331659s-9.636474-97.203856-28.907377-142.331659c-19.269879-45.124733-45.245484-84.028788-77.932953-116.715235-32.686447-32.68747-71.590502-58.664098-116.715235-77.932953C609.202832 27.74925 561.758264 18.112776 512 18.112776L512 18.112776 512 18.112776zM512 658.41593c-49.759287 0-95.741551-12.19474-137.940652-36.588313s-75.492368-57.687864-99.885941-99.885941c-24.393573-42.199101-36.588313-88.181365-36.588313-137.940652s12.19474-95.741551 36.588313-137.940652 57.687864-75.492368 99.885941-99.885941 88.181365-36.588313 137.940652-36.588313 95.741551 12.19474 137.940652 36.588313c42.199101 24.393573 75.492368 57.687864 99.885941 99.885941 24.393573 42.199101 36.588313 88.181365 36.588313 137.940652s-12.19474 95.741551-36.588313 137.940652c-24.393573 42.199101-57.687864 75.492368-99.885941 99.885941C607.741551 646.220167 561.758264 658.41593 512 658.41593L512 658.41593 512 658.41593zM649.571239 337.900056 512 337.900056c-12.684904 0-23.418362 4.51278-32.197306 13.534248-8.783037 9.026584-13.175067 19.881816-13.175067 32.565696L466.627626 520.843668c0 12.68081 4.39203 23.536043 13.175067 32.561603 8.778944 9.025561 19.512403 13.538341 32.197306 13.538341s23.539112-4.51278 32.565696-13.538341c9.021467-9.025561 13.534248-19.880793 13.534248-32.561603l0-91.472318 91.472318 0c12.198833 0 22.807449-4.39203 31.833009-13.175067 9.025561-8.778944 13.538341-19.512403 13.538341-32.197306s-4.51278-23.539112-13.538341-32.565696C672.379711 342.412836 661.770072 337.900056 649.571239 337.900056L649.571239 337.900056 649.571239 337.900056zM649.571239 337.900056"  horiz-adv-x="1024" />


    <glyph glyph-name="followus" unicode="&#58953;" d="M511.7-64.4c-247.2 0-448.2 201.1-448.2 448.3s201.1 448.2 448.2 448.2c247.2-0 448.3-201.1 448.3-448.2 0-247.2-201.1-448.3-448.3-448.3v0 0zM511.7 767.8c-211.7 0-383.9-172.2-383.9-383.9 0-211.7 172.2-384 383.9-384 211.7 0 383.9 172.3 383.9 383.9 0.1 211.8-172.2 384-383.9 384v0 0zM789.4 467.8c-1.2 25.1-9.3 50-23.4 72-11.4 17.8-22.6 27.5-23.1 28-32 27.3-66.6 41.1-102.9 41.1-56.9 0-102.7-33.7-128.3-58-25.6 24.2-71.4 58-128.2 58-36.3 0-71-13.9-103.1-41.3l-0.1-0.1c-1.8-1.5-43.1-38.5-46.2-99.7-2.3-46.6 17.8-93.2 59.9-138.5l217.7-232.4 217.8 232.5c42.1 45.2 62.2 91.8 59.9 138.4zM511.7 178.8l-176.8 188.7c-31.2 33.4-46.3 66.1-44.9 97 1.5 35.6 25.5 59.3 27.1 60.8 21.5 18.3 43.8 27.6 66.4 27.6 57 0 103.9-57.4 105.8-59.7l21.8-29.3 22.8 29c1.8 2.2 48.7 60.1 106.1 60.1 22.5 0 44.8-9.2 66.1-27.4 1.3-1.2 25.8-24.7 27.4-61.1 1.4-30.8-13.7-63.4-44.9-96.9l-176.9-188.8z"  horiz-adv-x="1024" />


    <glyph glyph-name="pinglun1" unicode="&#58906;" d="M869.084 708.867l-0.823-472.611-171.141 0.298c-11.94 0.021-23.395-2.275-34.331-6.904-10.936-4.63-20.734-11.253-29.397-19.849l-121.603-121.18-122.176 121.605c-3.971 4.656-8.45 8.644-13.402 11.963-4.969 3.318-10.103 5.969-15.4 7.987-5.315 1.999-10.938 3.673-16.906 4.986-5.948 1.331-11.936 2.011-17.925 2.038l-171.123 0.299 0.823 472.611 713.403-1.242zM889.122 798.393l-753.148 1.311c-19.23 0.034-35.667-6.568-49.296-19.813-13.627-13.247-20.459-29.481-20.492-48.711l-0.895-514.366c-0.034-19.232 6.741-35.506 20.322-48.791s29.996-19.952 49.227-19.986l191.024-0.331 172.845-174.41c3.288-3.317 7.609-4.989 12.91-4.999 1.338-0.002 2.66 0.321 3.981 0.97l7.966 3.985 173.435 173.809 191.023-0.333c19.232-0.033 35.669 6.577 49.299 19.813 13.626 13.239 20.457 29.489 20.49 48.721l0.896 514.365c0.033 19.23-6.742 35.489-20.321 48.783-13.581 13.293-29.997 19.952-49.228 19.985l-0.037 0zM245.818 474.669c0.029 16.255 5.86 30.183 17.496 41.769 11.616 11.594 25.411 17.378 41.331 17.35 6.622-0.012 12.935-1.026 18.9-3.027 5.948-2.009 11.425-4.84 16.412-8.495 4.968-3.663 9.284-7.976 12.912-12.949 3.609-4.972 6.421-10.458 8.438-16.451 1.997-5.982 2.981-12.298 2.952-18.919-0.043-24.531-11.343-42.087-33.94-52.657-7.966-3.976-16.6-5.96-25.899-5.944-15.902 0.028-29.678 5.859-41.253 17.485-11.596 11.634-17.38 25.583-17.351 41.838v0zM452.76 473.793c0.020 11.272 2.697 21.388 8.032 30.335 5.298 8.946 12.457 16.070 21.421 21.355 8.964 5.295 18.918 7.928 29.882 7.908 10.945-0.018 20.892-2.686 29.837-8.011 8.964-5.325 16.080-12.466 21.365-21.43 5.285-8.965 7.928-19.081 7.908-30.361-0.028-15.921-5.859-29.668-17.493-41.262-11.635-11.586-25.575-17.369-41.822-17.34-16.264 0.028-30.183 5.859-41.776 17.485-11.597 11.633-17.379 25.411-17.352 41.321v0zM661.715 473.946c0.028 16.254 5.859 30.183 17.494 41.769 11.633 11.594 25.411 17.377 41.331 17.349 11.252-0.019 21.38-2.696 30.326-8.022 8.947-5.316 16.061-12.465 21.347-21.43 5.303-8.964 7.927-19.081 7.907-30.352-0.028-15.921-5.86-29.669-17.476-41.263-11.634-11.585-25.574-17.369-41.839-17.34-16.264 0.019-30.184 5.851-41.779 17.486-11.593 11.635-17.359 25.574-17.331 41.83l0.018-0.028zM661.715 473.946z"  horiz-adv-x="1024" />


    <glyph glyph-name="pinglun2" unicode="&#59053;" d="M850.879104 799.58409l-676.303067 0c-60.681034 0-110.049418-49.367361-110.049418-110.049418l0-446.200388c0-60.681034 49.367361-110.049418 110.049418-110.049418l90.307795 0L396.936381-35.129846c3.793396-4.838192 9.598612-7.66354 15.746636-7.66354s11.952216 2.825348 15.746636 7.66354l132.052548 168.414711 290.396903 0c60.681034 0 110.049418 49.367361 110.049418 110.049418L960.928522 689.534671C960.928522 750.215706 911.561162 799.58409 850.879104 799.58409zM920.91111 243.334283c0-38.614459-31.416524-70.030983-70.030983-70.030983L550.744419 173.3033c-6.147 0-11.952216-2.825348-15.745612-7.66354L412.683017 9.643893l-122.31579 155.995867c-3.792373 4.838192-9.597589 7.66354-15.745612 7.66354l-100.045577 0c-38.614459 0-70.030983 31.416524-70.030983 70.030983L104.545054 689.534671c0 38.614459 31.416524 70.030983 70.030983 70.030983l676.303067 0c38.614459 0 70.030983-31.416524 70.030983-70.030983L920.910087 243.334283zM272.621051 551.473269c-44.132126 0-80.035848-35.903721-80.035848-80.035848 0-44.132126 35.903721-80.036871 80.035848-80.036871s80.035848 35.904745 80.035848 80.036871C352.655875 515.569548 316.752154 551.473269 272.621051 551.473269zM272.621051 431.417963c-22.065552 0-40.017412 17.951861-40.017412 40.018436 0 22.065552 17.952884 40.017412 40.017412 40.017412 22.065552 0 40.017412-17.951861 40.017412-40.017412C312.638463 449.370847 294.686602 431.417963 272.621051 431.417963zM512.727571 551.473269c-44.132126 0-80.035848-35.903721-80.035848-80.035848 0-44.132126 35.903721-80.036871 80.035848-80.036871 44.132126 0 80.035848 35.904745 80.035848 80.036871C592.763418 515.569548 556.859697 551.473269 512.727571 551.473269zM512.727571 431.417963c-22.065552 0-40.017412 17.951861-40.017412 40.018436 0 22.065552 17.951861 40.017412 40.017412 40.017412 22.065552 0 40.017412-17.951861 40.017412-40.017412C552.746006 449.370847 534.793122 431.417963 512.727571 431.417963zM752.836137 551.473269c-44.131103 0-80.035848-35.903721-80.035848-80.035848 0-44.132126 35.904745-80.036871 80.035848-80.036871s80.035848 35.904745 80.035848 80.036871C832.871985 515.569548 796.96724 551.473269 752.836137 551.473269zM752.836137 431.417963c-22.066575 0-40.017412 17.951861-40.017412 40.018436 0 22.065552 17.951861 40.017412 40.017412 40.017412s40.017412-17.951861 40.017412-40.017412C792.853549 449.370847 774.902712 431.417963 752.836137 431.417963z"  horiz-adv-x="1024" />


    <glyph glyph-name="languagepythontext" unicode="&#59670;" d="M85.333333 653.226667C380.586667 850.346667 473.6 597.333333 481.28 457.813333 488.96 318.72 353.706667 143.36 183.893333 259.413333L183.893333 29.866667 85.333333 95.146667 85.333333 653.226667M180.053333 580.266667 180.053333 350.72C334.506667 258.133333 387.413333 334.08 387.413333 465.493333 387.413333 651.093333 280.32 657.493333 180.053333 580.266667M643.413333 718.933333C643.413333 718.933333 635.733333 570.026667 643.413333 423.68 658.773333 277.333333 840.106667 390.826667 840.106667 390.826667L840.106667 686.08 938.666667 674.133333 938.666667 279.893333C938.666667 17.066667 676.266667 29.866667 676.266667 29.866667L643.413333 128C872.96 128 843.946667 280.32 843.946667 280.32 566.186667 171.946667 544.853333 357.973333 544.853333 357.973333L544.853333 653.226667 643.413333 718.933333Z"  horiz-adv-x="1024" />


    <glyph glyph-name="icon-mail" unicode="&#58882;" d="M818.977 831.775h-614.263c-113.073 0-204.714-93.713-204.714-209.238v-413.643c0-115.525 91.641-208.357 204.714-208.357h614.262c113.135 0 204.772 92.833 204.772 208.357v413.643c0.001 115.524-91.637 209.238-204.771 209.238zM709.784 413.58l249.787 150.083v-296.588l-249.787 146.505zM204.713 767.973h614.262c72.988 0 133.376-58.618 139.984-132.060l-447.085-268.685-447.373 268.859c6.719 73.361 67.339 131.886 140.211 131.886zM63.874 563.845l250.092-150.266-250.092-146.682v296.948zM818.977 64.582h-614.263c-72.794 0-133.362 57.398-140.191 130.531l309.642 181.605c0.189 0.115 0.37 0.238 0.556 0.356l121.313-72.89c4.84-2.89 10.309-4.397 15.841-4.397 5.53 0 10.997 1.507 15.839 4.397l121.315 72.891c0.186-0.119 0.367-0.243 0.558-0.357l309.353-181.435c-6.719-73.213-67.054-130.701-139.962-130.701z"  horiz-adv-x="1040" />


    <glyph glyph-name="shijian2" unicode="&#58928;" d="M827.871087 699.871087C743.498468 784.243707 631.321596 830.709995 512 830.709995c-119.319549 0-231.499491-46.465265-315.871087-130.837884S65.290005 503.319549 65.290005 384s46.465265-231.499491 130.837884-315.871087 196.551538-130.837884 315.871087-130.837884c119.321596 0 231.499491 46.465265 315.871087 130.837884S958.708971 264.680451 958.708971 384 912.243707 615.499491 827.871087 699.871087zM531.556405-21.246651l0 74.145697c0 11.31572-9.174963 20.491707-20.491707 20.491707-11.316743 0-20.491707-9.174963-20.491707-20.491707l0-74.059739C283.276738-10.322857 116.693746 156.835234 106.755396 364.365824l72.351841 0c11.31572 0 20.491707 9.174963 20.491707 20.491707 0 11.31572-9.174963 20.491707-20.491707 20.491707l-72.273047 0c10.769274 206.737528 177.01253 373.005342 383.740848 383.813502l0-72.346725c0-11.316743 9.174963-20.491707 20.491707-20.491707 11.31572 0 20.491707 9.17394 20.491707 20.491707L531.558451 789.247674c207.593012-9.901511 374.807385-176.539762 385.609405-383.89946l-74.142627 0c-11.316743 0-20.491707-9.174963-20.491707-20.491707 0-11.316743 9.174963-20.491707 20.491707-20.491707l74.220399 0C907.275555 156.21204 739.720422-11.317511 531.556405-21.246651zM532.098757 392.881274 532.098757 637.759471c0 11.316743-9.174963 20.491707-20.491707 20.491707-11.31572 0-20.491707-9.17394-20.491707-20.491707l0-254.66612c0-7.858992 4.429893-14.677281 10.924817-18.114566L693.447539 173.57243c4.002151-4.000104 9.245572-6.001691 14.490016-6.001691s10.487865 2.001587 14.490016 6.001691c8.002254 8.002254 8.002254 20.977777 0 28.980032L532.098757 392.881274z"  horiz-adv-x="1024" />


    <glyph glyph-name="mysql" unicode="&#59035;" d="M880.697 158.445c-47.588 1.195-84.475-3.572-115.409-16.653-8.925-3.573-23.203-3.573-24.393-14.876 4.762-4.762 5.357-12.492 9.523-19.037 7.136-11.898 19.628-27.962 30.935-36.29 12.492-9.513 24.988-19.033 38.069-27.362 23.206-14.281 49.383-22.604 71.988-36.885 13.087-8.325 26.173-19.036 39.259-27.962 6.546-4.756 10.707-12.491 19.037-15.465v1.785c-4.166 5.357-5.357 13.091-9.52 19.037-5.945 5.952-11.897 11.308-17.842 17.253-17.253 23.199-38.67 43.425-61.874 60.086-19.036 13.087-60.679 30.934-68.409 52.944 0 0-0.601 0.595-1.19 1.19 13.087 1.189 28.551 5.946 41.049 9.519 20.223 5.353 38.67 4.162 59.491 9.52 9.513 2.379 19.033 5.351 28.551 8.33v5.351c-10.707 10.707-18.438 24.983-29.745 35.097-30.334 26.178-63.652 51.761-98.155 73.171-18.444 11.902-42.243 19.637-61.869 29.745-7.139 3.573-19.043 5.357-23.199 11.308-10.713 13.087-16.657 30.334-24.393 45.806-17.249 32.722-33.913 69.007-48.783 103.511-10.707 23.203-17.249 46.404-30.334 67.821-61.28 101.133-127.904 162.403-230.228 222.494-22.017 12.492-48.19 17.847-76.15 24.388-14.87 0.595-29.741 1.785-44.614 2.38-9.52 4.165-19.037 15.47-27.367 20.821-33.908 21.417-121.355 67.822-146.343 6.546-16.064-38.67 23.794-76.738 37.479-96.375 10.114-13.682 23.199-29.147 30.34-44.615 4.162-10.108 5.353-20.821 9.52-31.529 9.513-26.173 18.437-55.323 30.934-79.717 6.541-12.492 13.682-25.579 22.011-36.88 4.757-6.546 13.084-9.519 14.87-20.226-8.329-11.898-8.925-29.745-13.685-44.62-21.412-67.221-13.081-150.507 17.253-199.884 9.519-14.87 32.129-47.595 62.464-35.097 26.772 10.707 20.822 44.615 28.556 74.362 1.785 7.139 0.595 11.897 4.162 16.653v-1.189c8.334-16.654 16.658-32.718 24.393-49.377 18.444-29.147 50.567-59.487 77.334-79.717 14.282-10.703 25.583-29.147 43.43-35.692v1.789h-1.189c-3.573 5.353-8.925 7.731-13.682 11.898-10.711 10.707-22.61 23.794-30.939 35.69-24.983 33.314-46.995 70.198-66.627 108.273-9.519 18.444-17.847 38.67-25.579 57.107-3.572 7.139-3.572 17.847-9.523 21.417-8.925-13.087-22.004-24.388-28.551-40.453-11.301-25.579-12.492-57.106-16.659-89.826-2.384-0.599-1.19 0-2.384-1.189-19.033 4.756-25.579 24.388-32.718 41.049-17.844 42.236-20.822 110.058-5.353 158.835 4.166 12.491 22.016 51.757 14.876 63.652-3.572 11.301-15.47 17.847-22.011 26.772-7.735 11.302-16.064 25.579-21.417 38.075-14.282 33.31-21.421 70.194-36.885 103.511-7.139 15.465-19.632 31.53-29.745 45.805-11.301 16.060-23.794 27.367-32.718 46.405-2.973 6.541-7.139 17.249-2.379 24.388 1.189 4.757 3.568 6.541 8.33 7.735 7.73 6.546 29.744-1.785 37.475-5.353 22.011-8.925 40.453-17.253 58.896-29.745 8.325-5.951 17.249-17.253 27.957-20.226h12.496c19.037-4.166 40.453-1.194 58.297-6.546 31.529-10.114 60.086-24.985 85.669-41.049 77.929-49.377 142.177-119.575 185.606-203.456 7.135-13.682 10.108-26.178 16.658-40.453 12.487-29.152 27.957-58.896 40.448-87.447 12.492-27.962 24.389-56.517 42.237-79.722 8.925-12.487 44.615-19.033 60.679-25.579 11.898-5.353 30.34-10.114 41.049-16.654 20.227-12.492 40.453-26.773 59.491-40.453 9.519-7.139 39.265-22.015 41.049-33.913v0 0zM880.697 158.445z"  horiz-adv-x="1024" />


    <glyph glyph-name="ego-menu" unicode="&#58885;" d="M867.995 436.353h-711.99c-27.921 0-52.353-24.434-52.353-52.353s24.434-52.353 52.353-52.353h711.99c27.921 0 52.353 24.434 52.353 52.353s-24.434 52.353-52.353 52.353zM867.995 132.709h-711.99c-27.921 0-52.353-24.434-52.353-52.353s24.434-52.353 52.353-52.353h711.99c27.921 0 52.353 24.434 52.353 52.353s-24.434 52.353-52.353 52.353zM156.005 635.291h711.99c27.921 0 52.353 24.434 52.353 52.353s-24.434 52.353-52.353 52.353h-711.99c-27.921 0-52.353-24.434-52.353-52.353s24.434-52.353 52.353-52.353z"  horiz-adv-x="1024" />


    <glyph glyph-name="vip1" unicode="&#59071;" d="M275.687675 608.024276 216.647232 608.024276 216.647232 669.660235 393.858893 669.660235 393.858893 423.056181 630.092931 669.660235 807.352768 669.660235 275.687675 114.858322ZM652.615499 98.339765 652.615499 329.015426l-45.165578 0 0 34.392082 114.293 0 0-265.067742L652.615499 98.339765 652.615499 98.339765z"  horiz-adv-x="1024" />


    <glyph glyph-name="vip2" unicode="&#59072;" d="M275.687675 607.500356 216.64121 607.500356 216.64121 669.136314 393.858893 669.136314 393.858893 422.53226 630.092931 669.136314 807.35879 669.136314 275.687675 114.32838ZM777.66995 97.815844l-192.104257 0 0 41.684817 125.066496 119.851377L710.632189 328.473439l-122.982857 0 0 34.392082 190.038685 0 0-128.17991-105.609165-102.495751 120.887174 0L777.66995 97.815844z"  horiz-adv-x="1024" />


    <glyph glyph-name="vip3" unicode="&#59074;" d="M275.687675 607.500356 216.64121 607.500356 216.64121 669.136314 393.858893 669.136314 393.858893 422.53226 630.092931 669.136314 807.346746 669.136314 275.687675 114.32838ZM585.565693 97.815844l0 33.699543 132.359231 0 0 82.677096-96.576049 0 0 34.036779 96.576049 0 0 80.942737-129.583053 0 0 33.699543 196.277557 0 0-111.16152-32.651702-17.710929 36.481743-26.744044 0-109.433184L585.565693 97.821866 585.565693 97.815844z"  horiz-adv-x="1024" />


    <glyph glyph-name="vip6" unicode="&#59075;" d="M273.327021 610.240401 213.708459 610.240401 213.708459 672.496633 392.678566 672.496633 392.678566 423.453638 631.273258 672.496633 810.291541 672.496633 273.327021 112.160432ZM586.288342 95.485301l0 267.711434 205.250451 0 0-35.451967-135.08121 0 0-64.562688 135.08121 0 0-167.702801L586.288342 95.479279 586.288342 95.485301zM721.020272 228.097459l-64.562688 0L656.457584 129.865338l64.562688 0L721.020272 228.097459z"  horiz-adv-x="1024" />


    <glyph glyph-name="vip7" unicode="&#59076;" d="M275.681653 607.500356 216.647232 607.500356 216.647232 669.136314 393.864915 669.136314 393.864915 422.53226 630.086908 669.136314 807.352768 669.136314 275.681653 114.32838ZM706.115631 97.815844l-73.650002 0 85.122059 230.320358-131.66067 0 0 34.392082 202.871731 0 0-40.992278L706.115631 97.815844z"  horiz-adv-x="1024" />


    <glyph glyph-name="vip8" unicode="&#59077;" d="M275.681653 607.500356 216.647232 607.500356 216.647232 669.136314 393.852871 669.136314 393.852871 422.53226 630.086908 669.136314 807.352768 669.136314 275.681653 114.32838ZM585.908951 97.815844l0 117.063155 41.690839 23.63063-37.511518 22.926047 0 101.435865 194.187896 0 0-102.128404-35.427879-22.227486 39.595156-24.323169 0-116.370616L585.908951 97.821866zM719.316024 220.088096l-63.924348-0.343258 0-87.898236 63.924348 0L719.316024 220.088096zM659.552931 328.473439l0-74.673755 55.939074 0 0.34928 74.673755L659.552931 328.473439z"  horiz-adv-x="1024" />


    <glyph glyph-name="vip9" unicode="&#59078;" d="M275.675631 607.500356 216.647232 607.500356 216.647232 669.136314 393.846849 669.136314 393.846849 422.53226 630.086908 669.136314 807.340724 669.136314 275.675631 114.32838ZM597.35692 97.815844l-12.152551 34.036779 135.129386 0 0 59.40779-134.436848 0.355303 0 170.912568 203.221011 0 0-264.71244L597.35692 97.815844 597.35692 97.815844zM720.351821 328.136202l-64.616887 0 0-102.128404 64.616887 0L720.351821 328.136202z"  horiz-adv-x="1024" />


    <glyph glyph-name="vip4" unicode="&#59081;" d="M275.687675 607.500356 216.647232 607.500356 216.647232 669.136314 393.858893 669.136314 393.858893 422.53226 630.092931 669.136314 807.346746 669.136314 275.687675 114.32838ZM764.120277 144.709758l0-46.893914-64.267606 0 0 46.893914-117.77376 0 0 33.356285 124.717215 184.462241 57.324151 0 0-184.118983 28.147188 0 0-33.699543L764.120277 144.709758zM699.852671 293.744121l-78.160538-115.334819 78.160538 0L699.852671 293.744121z"  horiz-adv-x="1024" />


    <glyph glyph-name="weibo" unicode="&#58940;" d="M437.248 423.594667c-131.072-6.144-237.226667-76.458667-237.226667-163.84 0-87.381333 106.154667-153.258667 237.226667-147.114667 131.072 6.144 237.568 88.064 237.568 175.786667C674.816 375.466667 568.661333 429.738667 437.248 423.594667L437.248 423.594667 437.248 423.594667zM526.677333 203.093333c-40.277333-51.882667-119.466667-77.141333-196.949333-35.498667C293.205333 187.733333 294.570667 226.986667 294.570667 226.986667s-15.36 123.562667 116.736 138.922667C543.402667 381.269333 566.954667 254.976 526.677333 203.093333L526.677333 203.093333 526.677333 203.093333zM438.272 286.037333c-8.533333-6.144-10.24-17.749333-5.461333-25.258667 4.437333-7.509333 14.677333-8.192 22.869333-2.048 8.192 6.485333 11.264 17.749333 6.826667 25.258667C458.069333 291.157333 448.170667 293.205333 438.272 286.037333L438.272 286.037333 438.272 286.037333zM375.808 268.970667c-24.576-2.389333-42.325333-23.893333-42.325333-44.714667 0-20.48 19.797333-34.816 44.373333-31.744 24.576 2.730667 44.373333 21.845333 44.373333 42.325333C422.570667 255.317333 404.138667 271.701333 375.808 268.970667L375.808 268.970667 375.808 268.970667zM845.824 860.16 181.248 860.16c-80.213333 0-145.408-65.194667-145.408-145.408l0-664.234667c0-80.213333 65.194667-145.408 145.408-145.408l664.234667 0c80.213333 0 145.408 65.194667 145.408 145.408L990.890667 714.752C991.232 794.965333 926.037333 860.16 845.824 860.16L845.824 860.16 845.824 860.16zM791.893333 230.058667c-53.930667-114.688-232.448-170.666667-364.544-160.426667-125.610667 9.898667-287.061333 51.541333-303.786667 203.434667 0 0-8.874667 68.949333 58.026667 157.696 0 0 95.914667 134.144 207.530667 172.373333 111.957333 37.888 124.928-26.282667 124.928-64.512-5.802667-32.426667-17.066667-51.2 24.917333-38.229333 0 0 109.909333 50.858667 155.306667 5.802667 36.522667-36.522667 6.144-86.698667 6.144-86.698667s-15.018667-16.725333 16.042667-22.869333C747.861333 390.485333 846.165333 345.088 791.893333 230.058667L791.893333 230.058667 791.893333 230.058667zM683.690667 547.498667c-11.946667 0-21.504 9.557333-21.504 21.504 0 11.946667 9.557333 21.845333 21.504 21.845333 0 0 134.826667 24.917333 118.784-119.808 0-0.682667 0-1.365333-0.341333-2.389333-1.365333-10.24-10.581333-18.090667-21.162667-18.090667-11.946667 0-21.845333 9.557333-21.845333 21.504C759.125333 472.064 780.288 568.661333 683.690667 547.498667L683.690667 547.498667 683.690667 547.498667zM911.36 431.445333 911.36 431.445333c-3.754667-24.576-16.042667-26.624-30.378667-26.624-17.408 0-31.402667 10.922667-31.402667 28.330667 0 15.018667 6.144 30.378667 6.144 30.378667 1.706667 6.485333 16.384 45.738667-9.557333 104.448-47.786667 80.554667-144.384 81.578667-155.989333 77.141333-11.605333-4.437333-28.330667-6.826667-28.330667-6.826667-17.408 0-31.402667 14.336-31.402667 31.402667 0 14.336 9.557333 26.624 22.869333 30.378667 0 0 0.341333 0.341333 0.682667 0.682667 1.024 0.341333 2.048 1.024 3.072 1.365333 13.312 2.730667 61.44 11.946667 107.861333 1.024C848.554667 683.690667 962.901333 603.136 911.36 431.445333L911.36 431.445333 911.36 431.445333zM911.36 431.445333"  horiz-adv-x="1024" />


    <glyph glyph-name="html52" unicode="&#59200;" d="M755.428571 554.857143l9.142857 100-505.142857 0 26.857143-305.142857 349.714286 0-12.571429-130.285714-112.571429-30.285714-112 30.285714-7.428571 80-100 0 12.571429-158.857143 206.857143-57.142857 2.285714 0 0 0.571429 205.142857 56.571429 28.571429 310.857143-368 0-8.571429 103.428571 385.142857 0zm-645.714286 268l804.571429 0-73.142857-821.714286-330.285714-92.571429-328 92.571429z"  horiz-adv-x="1024" />


    <glyph glyph-name="shijian" unicode="&#59073;" d="M523.776 750.08c201.728 0 366.08-164.352 366.08-366.08s-164.352-366.08-366.08-366.08S157.184 182.272 157.184 384 321.536 750.08 523.776 750.08M523.776 808.96c-234.496 0-424.96-190.464-424.96-424.96 0-234.496 189.952-424.96 424.96-424.96 234.496 0 424.96 189.952 424.96 424.96C948.736 618.496 758.272 808.96 523.776 808.96L523.776 808.96zM567.808 301.056c-7.68 0-14.848 3.072-20.48 8.704L392.192 464.896c-11.264 11.264-11.264 30.208 0 41.472 11.264 11.264 30.208 11.264 41.472 0l155.136-155.136c11.264-11.264 11.264-30.208 0-41.472C583.168 304.128 575.488 301.056 567.808 301.056zM523.776 271.36c-16.384 0-29.184 13.312-29.184 29.184L494.592 589.312c0 16.384 13.312 29.184 29.184 29.184 16.384 0 29.184-13.312 29.184-29.184l0-288.256C552.96 284.672 539.648 271.36 523.776 271.36zM239.104 354.816l-44.032 0c-16.384 0-29.184 13.312-29.184 29.184 0 16.384 13.312 29.184 29.184 29.184l44.032 0c16.384 0 29.184-13.312 29.184-29.184C268.288 368.128 255.488 354.816 239.104 354.816zM852.48 354.816 808.96 354.816c-16.384 0-29.184 13.312-29.184 29.184 0 16.384 13.312 29.184 29.184 29.184l44.032 0c16.384 0 29.184-13.312 29.184-29.184C882.176 368.128 868.864 354.816 852.48 354.816zM523.264 640.512C523.264 640.512 523.264 640.512 523.264 640.512c-16.384 0-29.184 13.312-29.184 29.184l0 44.032c0 16.384 13.312 29.184 29.184 29.184 0 0 0 0 0 0 16.384 0 29.184-13.312 29.184-29.184l0-44.032C552.448 653.824 539.136 640.512 523.264 640.512zM523.264 25.088c-16.384 0-29.184 13.312-29.184 29.184l0 44.032c0 16.384 13.312 29.184 29.184 29.184 0 0 0 0 0 0 16.384 0 29.184-13.312 29.184-29.184l0-44.032C552.448 38.4 539.136 25.088 523.264 25.088 523.264 25.088 523.264 25.088 523.264 25.088z"  horiz-adv-x="1024" />


    <glyph glyph-name="hot1" unicode="&#58951;" d="M447.136-47.52c-3.36 0-6.752 0.544-10.112 1.664-139.04 46.4-234.784 169.536-244.224 310.752C192.256 267.136 192 269.472 192 271.872c0 158.208-53.792 217.12-54.336 217.696-8.992 9.536-11.424 23.808-5.856 35.68 5.568 11.872 17.92 19.392 30.72 18.56 9.952-0.608 98.592-6.72 144.48-37.312 22.112-14.72 40.384-42.048 54.08-68.672 47.552 138.944 24.64 356 24.352 358.56-1.376 12.608 4.8 24.8 15.744 31.168 10.944 6.336 24.608 5.664 34.848-1.76 8.768-6.368 186.336-136.128 267.776-268.768 4.096 31.232 5.024 72.512 1.568 112.064-1.152 13.088 5.824 25.568 17.6 31.424 11.744 5.888 25.952 3.968 35.68-4.832 5.984-5.344 145.696-134.368 138.72-408.608 0-125.6-68.448-242.912-178.624-305.376-12.288-6.976-27.776-5.056-38.016 4.8-10.176 9.856-12.704 25.216-6.176 37.792 10.656 20.48 16.032 41.664 16.032 62.976 1.792 70.208-83.648 146.784-151.552 194.464 6.176-54.88 7.456-125.568-18.528-163.84-5.024-7.36-12.896-12.32-21.728-13.664-8.96-1.184-17.824 1.152-24.768 6.688-0.352 0.288-34.848 27.872-66.496 45.6-15.392 8.64-20.928 28.128-12.288 43.52s28.128 20.896 43.552 12.288c13.28-7.392 26.688-16.128 38.432-24.256 4.608 42.752-3.104 108.672-12.448 151.84-2.656 12.256 2.08 24.928 12.128 32.416 10.016 7.52 23.52 8.448 34.528 2.4 25.088-13.792 243.136-137.856 243.168-284.48 49.792 52.768 78.752 123.296 78.752 197.632 3.328 131.84-30.944 226.08-63.328 285.056-3.936-48.64-16.032-98.912-47.008-119.648-8.352-5.568-18.848-6.944-28.416-3.584-9.504 3.328-16.864 10.976-19.904 20.576-28.736 91.328-148.544 200.672-220.64 260.032 4.16-102.432 0.48-286.944-69.088-388.544-6.944-10.08-19.168-15.232-31.104-13.568-12.096 1.824-22.144 10.368-25.824 22.048-10.816 34.304-35.52 88.96-56.544 102.944-11.2 7.456-29.856 13.376-49.696 17.76 16.16-38.56 31.68-96.48 33.888-178.976C255.904 290.656 256 289.28 256 287.872c0-121.216 82.752-233.504 201.248-273.056 16.768-5.6 25.824-23.712 20.224-40.48C472.992-39.072 460.512-47.52 447.136-47.52z"  horiz-adv-x="1024" />


    <glyph glyph-name="dingyue" unicode="&#58931;" d="M180.900581 148.098245c-30.945803 0-56.030108-25.063839-56.030108-56.009641 0-30.944779 25.084305-56.029084 56.030108-56.029084s56.030108 25.084305 56.030108 56.029084C236.930689 123.033383 211.846384 148.098245 180.900581 148.098245zM510.205633 291.522796c-36.536125 56.352449-85.313038 101.850689-144.975882 135.229914-100.747565 56.364729-197.478653 58.401108-201.547319 58.459437-0.161682 0.002047-0.322341 0.00307-0.483001 0.00307-17.797341 0-32.391734-14.295588-32.650631-32.149211-0.261966-18.016329 14.09195-32.832779 32.107255-33.093722 0.853437-0.017396 86.431511-2.228761 172.965353-51.43137 49.770544-28.29851 90.38966-66.621327 120.730689-113.90319 38.395472-59.833737 60.724013-134.757147 66.3655-222.685755 1.107217-17.271362 15.459087-30.537504 32.524764-30.537504 0.701988 0 1.410116 0.022513 2.12029 0.068562 17.980513 1.153266 31.622208 16.664541 30.467919 34.645055C581.423651 136.032442 555.305807 221.95844 510.205633 291.522796zM910.717446 32.675446c-8.742105 166.089759-53.333696 308.439838-132.536572 423.098227-63.663972 92.164073-149.428288 166.350702-254.911714 220.49588-93.13212 47.805796-184.738491 70.76367-245.186212 81.605599-65.825195 11.805884-109.704564 12.278651-111.540376 12.292977-17.96107 0.168846-32.69975-14.329357-32.859385-32.333406-0.160659-18.003026 14.310937-32.732495 32.314986-32.913621 0.409322-0.004093 41.704844-0.539282 102.921068-11.69639 56.07104-10.218736 140.910287-31.714306 226.6613-76.088956 95.30153-49.318242 172.597987-116.488061 229.740428-199.642946 71.718415-104.364953 112.172779-234.991012 120.239502-388.248512 0.916882-17.410532 15.318894-30.909987 32.55137-30.909987 0.577145 0 1.159406 0.01535 1.74269 0.046049C897.845277-0.672056 911.664004 14.682653 910.717446 32.675446z"  horiz-adv-x="1024" />


    <glyph glyph-name="subscribe-1-copy" unicode="&#58886;" d="M980.779-72.702l0.212 21.22c0 503.961-408.557 912.5-912.539 912.5l-21.221-0.212v-148.334c433.662 0 785.207-351.537 785.207-785.174h148.34zM641.018-72.702l0.423 21.22c0 316.444-256.531 572.965-572.989 572.965l-21.221-0.423v-148.123c246.132 0 445.659-199.517 445.659-445.641h148.129zM47.231 54.626c0-70.324 57.006-127.328 127.33-127.328 70.327 0 127.33 57.004 127.33 127.328 0 70.315-57.003 127.322-127.33 127.322-70.324 0.001-127.33-57.007-127.33-127.322z"  horiz-adv-x="1000" />


    <glyph glyph-name="mima" unicode="&#58974;" d="M522.368 885.6064c-144.1536 0-252.9024-114.6624-252.9024-266.752l0-93.7472-8.192 0c-75.776 0-137.4464-63.3088-137.4464-141.0816l0-360.5248c0-77.7728 61.6704-141.1072 137.4464-141.1072l524.3392 0c75.776 0 137.4464 63.3344 137.4464 141.1072L923.0592 384.0256c0 77.7728-61.6704 141.0816-137.4464 141.0816l-4.5056 0c-1.2032 0.4352-2.4576 0.5632-3.712 0.768l0 93.0048C777.4464 770.9184 667.8016 885.6064 522.368 885.6064L522.368 885.6064zM522.368 843.776c123.52 0 213.248-94.592 213.248-224.9472l0-92.3648L311.3216 526.464l0 92.3648C311.3216 749.184 400.0768 843.776 522.368 843.776L522.368 843.776zM881.28 384.0256l0-360.5248c0-54.7328-42.9312-99.2768-95.616-99.2768L261.2992-75.776c-52.736 0-95.616 44.544-95.616 99.2768L165.6832 384.0256c0 54.7072 42.88 99.2512 95.616 99.2512l50.0224 0 0 1.3824 424.2688 0 0-1.3824 50.048 0C838.3488 483.2512 881.28 438.7328 881.28 384.0256L881.28 384.0256zM881.28 384.0256M518.8608 327.9616c-33.5104 0-60.672-28.0064-60.672-62.5664 0-23.1168 12.2368-43.3408 30.336-54.1696l0-102.1952c0-17.2544 13.568-31.3088 30.336-31.3088 16.7424 0 30.336 14.0544 30.336 31.3088L549.1968 211.2c18.0992 10.8288 30.3104 31.0272 30.3104 54.1696C579.456 299.9296 552.32 327.9616 518.8608 327.9616L518.8608 327.9616zM518.8608 327.9616"  horiz-adv-x="1024" />


    <glyph glyph-name="hot2" unicode="&#58889;" d="M447.136-47.52c-3.36 0-6.752 0.544-10.112 1.664-139.04 46.4-234.784 169.536-244.224 310.752C192.256 267.136 192 269.472 192 271.872c0 158.208-53.792 217.12-54.336 217.696-8.992 9.536-11.424 23.808-5.856 35.68 5.568 11.872 17.92 19.392 30.72 18.56 9.952-0.608 98.592-6.72 144.48-37.312 22.112-14.72 40.384-42.048 54.08-68.672 47.552 138.944 24.64 356 24.352 358.56-1.376 12.608 4.8 24.8 15.744 31.168 10.944 6.336 24.608 5.664 34.848-1.76 8.768-6.368 186.336-136.128 267.776-268.768 4.096 31.232 5.024 72.512 1.568 112.064-1.152 13.088 5.824 25.568 17.6 31.424 11.744 5.888 25.952 3.968 35.68-4.832 5.984-5.344 145.696-134.368 138.72-408.608 0-125.6-68.448-242.912-178.624-305.376-12.288-6.976-27.776-5.056-38.016 4.8-10.176 9.856-12.704 25.216-6.176 37.792 10.656 20.48 16.032 41.664 16.032 62.976 1.792 70.208-83.648 146.784-151.552 194.464 6.176-54.88 7.456-125.568-18.528-163.84-5.024-7.36-12.896-12.32-21.728-13.664-8.96-1.184-17.824 1.152-24.768 6.688-0.352 0.288-34.848 27.872-66.496 45.6-15.392 8.64-20.928 28.128-12.288 43.52s28.128 20.896 43.552 12.288c13.28-7.392 26.688-16.128 38.432-24.256 4.608 42.752-3.104 108.672-12.448 151.84-2.656 12.256 2.08 24.928 12.128 32.416 10.016 7.52 23.52 8.448 34.528 2.4 25.088-13.792 243.136-137.856 243.168-284.48 49.792 52.768 78.752 123.296 78.752 197.632 3.328 131.84-30.944 226.08-63.328 285.056-3.936-48.64-16.032-98.912-47.008-119.648-8.352-5.568-18.848-6.944-28.416-3.584-9.504 3.328-16.864 10.976-19.904 20.576-28.736 91.328-148.544 200.672-220.64 260.032 4.16-102.432 0.48-286.944-69.088-388.544-6.944-10.08-19.168-15.232-31.104-13.568-12.096 1.824-22.144 10.368-25.824 22.048-10.816 34.304-35.52 88.96-56.544 102.944-11.2 7.456-29.856 13.376-49.696 17.76 16.16-38.56 31.68-96.48 33.888-178.976C255.904 290.656 256 289.28 256 287.872c0-121.216 82.752-233.504 201.248-273.056 16.768-5.6 25.824-23.712 20.224-40.48C472.992-39.072 460.512-47.52 447.136-47.52z"  horiz-adv-x="1024" />


    <glyph glyph-name="chat" unicode="&#58919;" d="M886.016 616.256c15.744-0.576 31.232-3.52 46.016-9.344 39.456-16.038 69.195-48.88 80.669-89.397 1.699-3.659 4.259-18.059 4.835-32.779 0.896-75.264 0.896-150.528 0-225.792-0.627-17.996-4.504-34.92-11.059-50.437-14.668-35.862-48.528-66.007-90.171-76.964-3.543-1.566-18.593-4.166-34.248-4.185l-81.29 0.002-2.112-73.6-0.192-2.56c-0.739-4.669-2.464-8.832-4.959-12.42-2.924-4.875-11.179-9.896-20.608-9.896-1.39 0-2.754 0.109-4.084 0.319-4.54 0.858-8.67 2.798-12.131 5.544l-146.825 92.613c-56.192 0-112.384-0.64-168.576 0.064-18.961 0.614-36.765 4.918-52.93 12.211-34.295 14.944-62.922 47.424-73.944 87.22-1.576 2.953-4.594 18.904-4.715 35.542-0.36 30.11-0.604 69.747-0.604 109.442 0 39.695 0.244 79.332 0.73 118.912 0.518 8.704 3.078 23.104 8.134 36.928 15.103 39.944 47.279 70.397 87.38 82.836 4.716 2.22 20.204 5.164 35.948 5.74 148.224 1.856 296.512 1.856 444.736 0zM444.928 565.12c-10.445-0.027-20.439-1.923-29.677-5.371-24.566-9.325-43.769-29.942-51.21-55.563-1.187-2.7-3.050-12.624-3.127-22.972-0.914-72.894-2.706-148.094 0.174-223.166 0.512-8.384 2.048-16.576 4.928-24.448 11.961-31.839 41.828-54.231 77.022-54.986 57.762-0.758 116.002-0.054 174.242-0.054 5.307-0.208 10.203-1.799 14.388-4.42l117.068-74.044 1.536 53.568 0.192 2.496c1.553 11.931 11.129 21.207 23.071 22.282 37.665 1.846 75.553-1.226 113.313 0.246 8.384 0.512 16.576 2.048 24.448 4.928 31.787 12.116 54.139 41.954 55.056 77.128 0.944 74.616 2.736 149.816-0.144 224.824-0.567 10.2-2.805 19.725-6.447 28.521-7.9 20.81-27.911 39.729-52.843 47.462-2.787 1.34-13.307 3.462-24.313 3.545-144.494 1.815-291.054 0.023-437.678 0.023zM495.936 737.856c33.096-0.973 62.624-15.478 83.381-38.148 4.447-3.983 8.269-10.753 9.615-18.377-0.756 3.053-0.453 0.813-0.453-1.498 0-13.784-10.786-25.049-24.379-25.815-0.27-0.009-0.508-0.012-0.747-0.012-6.214 0-11.931 2.123-16.467 5.684-3.398 2.964-6.278 6.612-9.67 9.748-11.494 10.278-26.594 16.736-43.191 17.271-53.688 2.297-119.44 3.673-185.513 3.673-66.073 0-131.824-1.376-197.227-4.102-17.509-1.115-40.033-18.266-49.281-42.048-2.654-6.76-4.325-14.946-4.439-23.507-1.062-25.61-1.724-59.059-1.724-92.663 0-33.604 0.662-67.053 1.974-100.335 0.234-1.873 1.45-8.401 3.754-14.673 9.175-23.992 31.008-41.176 57.115-43.476 1.701-0.172 4.837-0.108 8.037-0.3 2.24-0.32 2.24-0.32 4.544-0.896 10.492-3.374 18.028-12.867 18.439-24.177l0.505-23.695 76.992 36.8c2.112 0.896 2.048 0.896 4.288 1.6 2.069 0.562 4.445 0.884 6.896 0.884 1.588 0 3.144-0.135 4.658-0.395 11.834-2.378 20.746-12.826 20.746-25.355 0-2.776-0.438-5.45-1.247-7.957-2.367-6.72-7.359-12.198-13.745-15.202-34.907-18.663-73.947-35.367-112.219-53.671-3.176-1.505-6.901-2.384-10.831-2.384-13.935 0-25.289 11.051-25.776 24.868l-0.961 41.196c-3.392 0.704-6.656 1.664-9.92 2.624-20.506 6.611-37.947 17.893-51.73 32.637-12.045 6.912-30.33 40.32-30.989 78.026-0.802 62.136-0.802 125.624 0.030 189.048 0.512 13.76 3.072 27.264 8.128 40.128 12.224 31.040 37.76 55.936 69.056 67.392 12.096 4.416 24.64 6.656 37.44 7.104 124.992 1.6 249.984 1.792 374.912 0zM501.376 405.12c21.212-0.018 38.4-17.218 38.4-38.432 0-21.225-17.207-38.432-38.432-38.432-0.011 0-0.023 0-0.034 0-21.21 0.018-38.398 17.218-38.398 38.432 0 21.225 17.207 38.432 38.432 38.432 0.011 0 0.023-0 0.034-0zM663.616 405.12c0-0 0-0 0-0 21.208 0 38.4-17.192 38.4-38.4 0-21.208-17.192-38.4-38.4-38.4-0 0-0 0-0 0-21.208 0-38.4 17.192-38.4 38.4 0 21.208 17.192 38.4 38.4 38.4zM825.92 405.12c21.212-0.018 38.4-17.218 38.4-38.432 0-21.225-17.207-38.432-38.432-38.432-0.011 0-0.023 0-0.034 0-21.21 0.018-38.398 17.218-38.398 38.432 0 21.225 17.207 38.432 38.432 38.432 0.011 0 0.023-0 0.034-0z"  horiz-adv-x="1024" />


    <glyph glyph-name="top" unicode="&#58914;" d="M543.261908 701.263571c-8.259976 8.263976-19.092944 12.392964-29.926912 12.389963a42.769875 42.769875 0 0 1-4.303987-0.219999c-0.173999-0.02-0.342999-0.042-0.515999-0.063-0.492999-0.055-0.987997-0.113-1.480995-0.187999-0.339999-0.05-0.682998-0.113-1.020997-0.17-0.317999-0.056-0.637998-0.108-0.958998-0.170999-0.432999-0.086-0.862997-0.184999-1.290996-0.284-0.224999-0.052-0.446999-0.1-0.668998-0.155999-0.485999-0.118-0.965997-0.250999-1.444996-0.388999-0.168-0.047-0.337999-0.094-0.505998-0.145a39.044886 39.044886 0 0 1-1.519996-0.487998c-0.139-0.047-0.277999-0.092-0.416999-0.14a43.695872 43.695872 0 0 1-1.556995-0.587998c-0.12-0.047-0.233999-0.09-0.349999-0.14-0.534998-0.215999-1.064997-0.447999-1.583995-0.687998l-0.290999-0.129999a44.25987 44.25987 0 0 1-1.631996-0.808998l-0.196999-0.1c-0.583998-0.309999-1.159997-0.630998-1.729995-0.966997a42.512875 42.512875 0 0 1-9.141973-7.239978L119.238151 337.09463700000003c-16.519952-16.520952-16.519952-43.305873 0-59.827824 16.519952-16.521952 43.356873-16.521952 59.877824 0l291.953145 291.908144v-654.804081c0-23.364932 18.896945-42.371876 42.257876-42.371876h-0.159999c23.364932 0 42.144877 19.006944 42.144876 42.371876V569.2819569999999l292.155144-291.803145c16.519952-16.518952 43.377873-16.409952 59.896825 0.214999h0.04c16.521952 16.624951 16.533952 43.092874 0.01 59.619826L543.262908 701.2645709999999zM986.50561 837.465171c0 23.263932-18.863945 42.121877-42.128877 42.121877H76.459276c-23.263932 0-42.122877-18.858945-42.122877-42.121877 0-23.262932 18.858945-42.121877 42.122877-42.121876h867.917457c23.263932 0 42.127877 18.858945 42.127877 42.121876z"  horiz-adv-x="1024" />


    <glyph glyph-name="icon-test" unicode="&#58915;" d="M897.886209 55.39182H394.90563c-32.05916 0-58.035788 25.995047-58.035788 58.035788v38.692231c0 32.078603 25.976628 58.035788 58.035788 58.035787h502.980579c32.061207 0 58.036811-25.957185 58.036811-58.035787v-38.692231c-0.001023-32.04074-25.975605-58.035788-58.036811-58.035788z m0 251.489778H394.90563c-32.05916 0-58.035788 25.995047-58.035788 58.036811v38.691208c0 32.05916 25.976628 58.035788 58.035788 58.035787h502.980579c32.061207 0 58.036811-25.976628 58.036811-58.035787v-38.691208c-0.001023-32.041764-25.975605-58.036811-58.036811-58.036811z m0 251.489778H394.90563c-32.05916 0-58.035788 25.995047-58.035788 58.036811v38.691208c0 32.05916 25.976628 58.035788 58.035788 58.035787h502.980579c32.061207 0 58.036811-25.976628 58.036811-58.035787v-38.691208c-0.001023-32.04074-25.975605-58.036811-58.036811-58.036811zM201.45164 55.39182h-77.381392c-32.060183 0-58.035788 25.995047-58.035787 58.035788v38.692231c0 32.078603 25.976628 58.035788 58.035787 58.035787h77.381392c32.060183 0 58.035788-25.957185 58.035788-58.035787v-38.692231c0-32.04074-25.976628-58.035788-58.035788-58.035788z m0 251.489778h-77.381392c-32.060183 0-58.035788 25.995047-58.035787 58.036811v38.691208c0 32.05916 25.976628 58.035788 58.035787 58.035787h77.381392c32.060183 0 58.035788-25.976628 58.035788-58.035787v-38.691208c0-32.041764-25.976628-58.036811-58.035788-58.036811z m0 251.489778h-77.381392c-32.060183 0-58.035788 25.995047-58.035787 58.036811v38.691208c0 32.05916 25.976628 58.035788 58.035787 58.035787h77.381392c32.060183 0 58.035788-25.976628 58.035788-58.035787v-38.691208c0-32.04074-25.976628-58.036811-58.035788-58.036811z"  horiz-adv-x="1024" />


    <glyph glyph-name="language-python" unicode="&#59337;" d="M816.64 576A122.026667 122.026667 0 0 0 938.666667 453.973333v-161.28A122.026667 122.026667 0 0 0 816.64 170.666667H512c0-16.64 13.653333-40.96 30.293333-40.96H725.333333v-71.68a122.026667 122.026667 0 0 0-122.026666-122.026667H420.693333A122.026667 122.026667 0 0 0 298.666667 58.026667v160a121.6 121.6 0 0 0 122.026666 121.6h224a121.6 121.6 0 0 1 121.6 122.026666V576h50.346667m-182.613333-503.04c-17.066667 0-30.72-12.8-30.72-37.973333 0-25.173333 13.653333-30.293333 30.72-30.293334a30.293333 30.293333 0 0 1 30.293333 30.293334c0 25.173333-13.653333 37.973333-30.293333 37.973333m-426.666667 76.373333A122.026667 122.026667 0 0 0 85.333333 271.36v161.28A122.026667 122.026667 0 0 0 207.36 554.666667H512c0 16.64-13.653333 40.96-30.293333 40.96H298.666667V667.306667A122.026667 122.026667 0 0 0 420.693333 789.333333h182.613334A122.026667 122.026667 0 0 0 725.333333 667.306667v-160a121.6 121.6 0 0 0-122.026666-121.6H379.306667a121.6 121.6 0 0 1-121.6-122.026667v-114.346667H207.36M389.973333 652.373333c17.066667 0 30.72 12.8 30.72 37.973334 0 25.173333-13.653333 30.293333-30.72 30.293333-16.64 0-30.293333-5.12-30.293333-30.293333s13.653333-37.973333 30.293333-37.973334z"  horiz-adv-x="1024" />


    <glyph glyph-name="linux" unicode="&#59353;" d="M562.346667 277.333333c-27.733333-32.426667-72.96-32.426667-100.693334 0l-144.213333 170.666667C305.493333 414.72 298.666667 378.88 298.666667 341.333333c0-71.253333 24.32-135.68 64-182.186666 64-4.266667 119.04-29.44 139.946666-73.813334h18.773334c20.906667 42.666667 73.813333 66.56 138.24 71.253334C700.16 203.093333 725.333333 268.8 725.333333 341.333333c0 37.546667-6.826667 73.386667-18.773333 106.666667l-144.213333-170.666667M853.333333 10.666667c0-23.466667-29.866667-53.333333-53.333333-53.333334h-234.666667c-23.466667 0-53.333333 29.866667-53.333333 53.333334 0-23.466667-29.866667-53.333333-53.333333-53.333334h-234.666667C200.533333-42.666667 170.666667-12.8 170.666667 10.666667c0 55.466667 40.106667 104.106667 98.133333 132.266666C234.666667 198.826667 213.333333 267.52 213.333333 341.333333c-42.666667-85.333333-98.133333-109.226667-124.16-85.333333-25.173333 23.893333-12.8 92.586667 43.093334 153.173333 31.573333 34.56 81.066667 76.373333 115.626666 92.16 13.653333 29.44 31.146667 56.32 50.773334 79.786667V597.333333a213.333333 213.333333 0 0 0 213.333333 213.333334 213.333333 213.333333 0 0 0 213.333333-213.333334v-16.213333c19.626667-23.466667 37.12-50.346667 50.773334-79.786667 34.56-15.786667 84.053333-57.6 115.626666-92.16 55.893333-60.586667 68.266667-129.28 43.093334-153.173333-26.026667-23.893333-81.493333 0-124.16 85.333333 0-74.666667-21.333333-143.786667-56.746667-200.106666 58.88-27.306667 99.413333-74.666667 99.413333-130.56M421.546667 512c-17.92-21.333333-17.92-54.186667 0-74.666667l53.333333-64c17.493333-20.48 46.08-20.48 64 0l53.333333 64c17.493333 20.48 17.493333 53.333333 0 74.666667h-170.666666M426.666667 672c-23.466667 0-42.666667-27.733333-42.666667-74.666667s19.2-74.666667 42.666667-74.666666S469.333333 550.4 469.333333 597.333333s-19.2 74.666667-42.666666 74.666667m170.666666 0c-23.466667 0-42.666667-27.733333-42.666666-74.666667s19.2-74.666667 42.666666-74.666666S640 550.4 640 597.333333s-19.2 74.666667-42.666667 74.666667z"  horiz-adv-x="1024" />


    <glyph glyph-name="search" unicode="&#59004;" d="M939.7 54.3l-166.4 166.4c-3.1 3.1-6.4 5.8-9.9 8.2 43.2 62.1 68.6 137.7 68.6 219.1 0 212.1-171.9 384-384 384s-384-171.9-384-384 171.9-384 384-384c81.4 0 157 25.4 219.1 68.6 2.4-3.5 5.1-6.8 8.2-9.9l166.4-166.4c27.1-27.1 70.9-27.1 98 0s27.1 70.9 0 98zM448 128c-43.2 0-85.1 8.5-124.5 25.1-38.1 16.1-72.3 39.2-101.7 68.6-29.4 29.4-52.5 63.6-68.6 101.7-16.7 39.5-25.2 81.4-25.2 124.6 0 43.2 8.5 85.1 25.1 124.5 16.1 38.1 39.2 72.3 68.6 101.7 29.4 29.4 63.6 52.5 101.7 68.6 39.5 16.7 81.4 25.2 124.6 25.2 43.2 0 85.1-8.5 124.5-25.1 38.1-16.1 72.3-39.2 101.7-68.6 29.4-29.4 52.5-63.6 68.6-101.7 16.7-39.5 25.2-81.4 25.2-124.6 0-43.2-8.5-85.1-25.1-124.5-16.1-38.1-39.2-72.3-68.6-101.7-29.4-29.4-63.6-52.5-101.7-68.6-39.5-16.7-81.4-25.2-124.6-25.2z"  horiz-adv-x="1024" />


    <glyph glyph-name="tubiao-" unicode="&#58900;" d="M384 512c0-70.692 57.308-128 128-128s128 57.308 128 128c0 70.692-57.308 128-128 128-70.692 0-128-57.308-128-128zM512 384c-146.64 0-266.64-110.4-266.64-245.36v-10.64h533.28v10.64c0 134.96-120 245.36-266.64 245.36z"  horiz-adv-x="1024" />


    <glyph glyph-name="youxiang" unicode="&#59313;" d="M928 0h-832C43.072 0 0 43.072 0 96v576C0 724.928 43.072 768 96 768h832c52.928 0 96-43.072 96-96v-576c0-52.928-43.072-96-96-96zM96 704a32 32 0 0 1-32-32v-576a32 32 0 0 1 32-32h832c17.6 0 32 14.4 32 32v576a32 32 0 0 1-32 32h-832zM512 338.688a31.872 31.872 0 0 0-17.728 5.376l-320 213.312a32 32 0 1 0 35.456 53.248L512 409.152l302.272 201.472a32 32 0 0 0 35.456-53.248l-320-213.312A31.36 31.36 0 0 0 512 338.688z"  horiz-adv-x="1024" />


    <glyph glyph-name="pinglun" unicode="&#58907;" d="M544-96c-12.608 0-24.832 5.248-33.6 14.4 0 0-111.744 115.328-154.56 160.256H186.688C102.848 78.656 32 153.6 32 242.368V707.904C32 793.984 100.16 864 184 864h720c83.84 0 152-70.016 152-156.096v-465.472c0-88.768-70.848-163.776-154.752-163.776h-174.08C665.92 18.112 579.456-79.616 578.56-80.576 568.832-90.752 556.608-96 544-96zM184 800c-48.512 0-88-41.344-88-92.096v-465.472c0-53.12 42.432-99.776 90.688-99.776h196.736l9.472-10.048c25.664-27.328 116.608-121.344 150.592-156.352 27.776 31.04 98.048 108.672 148.416 157.44l9.344 9.024h200.064c48.32 0 90.752 46.656 90.752 99.776V707.904c0 50.816-39.488 92.096-88 92.096H184zM304 521.664c-33.152 0-59.968-27.776-59.968-62.08s26.88-62.08 59.968-62.08 59.968 27.776 59.968 62.08-26.816 62.08-59.968 62.08zM544 521.664c-33.152 0-59.968-27.776-59.968-62.08s26.88-62.08 59.968-62.08 59.968 27.776 59.968 62.08-26.816 62.08-59.968 62.08zM784 521.664c-33.152 0-60.032-27.776-60.032-62.08s26.88-62.08 60.032-62.08 59.968 27.776 59.968 62.08c0.064 34.304-26.816 62.08-59.968 62.08z"  horiz-adv-x="1088" />


    <glyph glyph-name="fangwen1" unicode="&#58888;" d="M512 153.11A482.52 482.52 0 0 0 150.76 316a102.61 102.61 0 0 0 0 136.11 482.15 482.15 0 0 0 722.52-0.07 102.75 102.75 0 0 0 0.07-136A483 483 0 0 0 512 153.11z m0 391.71a412.15 412.15 0 0 1-308.75-139.2 32.88 32.88 0 0 1-0.07-43.18 412.15 412.15 0 0 1 617.68-0.07 33.13 33.13 0 0 1-0.07 43.25A412.37 412.37 0 0 1 512 544.82zM512 276a109.46 109.46 0 1 0 109.45 109.51A109.64 109.64 0 0 0 512 276z m0 148.84a39.38 39.38 0 1 1 39.35-39.35A39.41 39.41 0 0 1 512 424.85z"  horiz-adv-x="1024" />


    <glyph glyph-name="you" unicode="&#58904;" d="M295.310513-128a39.383767 39.383767 0 0 0-27.883707 67.188707L712.227072 383.988973 267.505574 828.710471a39.383767 39.383767 0 1 0 55.688646 55.767414l472.605206-472.605205a39.383767 39.383767 0 0 0 0-55.688647l-472.605206-472.605205a39.383767 39.383767 0 0 0-27.883707-11.578828z"  horiz-adv-x="1024" />


    <glyph glyph-name="zuo" unicode="&#58909;" d="M767.921231-128a39.384615 39.384615 0 0 1 27.884307 67.190154L350.995692 384 795.726769 828.731077a39.384615 39.384615 0 0 1-55.689846 55.689846l-472.615385-472.615385a39.384615 39.384615 0 0 1 0.07877-55.689846l472.615384-472.615384a39.227077 39.227077 0 0 1 27.805539-11.500308z"  horiz-adv-x="1024" />


    <glyph glyph-name="touxiang" unicode="&#58975;" d="M512 895.993C229.233 895.993 0.006 666.766 0.006 383.999c0-116.573 38.964-224.043 104.572-310.106a514.544 514.544 0 0 1 92.449-93.56c34.369-26.855 72.256-49.414 112.854-66.876 62.008-26.67 130.335-41.451 202.118-41.451 71.782 0 140.11 14.781 202.117 41.451 40.599 17.462 78.485 40.021 112.854 66.876a514.505 514.505 0 0 1 92.454 93.564c65.605 86.064 104.568 193.531 104.568 310.103C1023.993 666.766 794.766 895.993 512 895.993z m319.607-831.601c-34.275-34.274-73.195-62.459-115.998-84.059a454.565 454.565 0 0 0-27.691-12.832C632.232-56.052 573.045-67.994 512-67.994s-120.233 11.942-175.918 35.495a454.593 454.593 0 0 0-27.692 12.832c-42.803 21.6-81.724 49.784-115.999 84.059a459.579 459.579 0 0 0-4.492 4.562c6.345 2.848 14.245 5.729 23.918 9.08 8.408 2.914 17.111 5.929 25.845 9.618 14.907 6.285 30.451 12.971 46.14 19.715 23.398 10.057 47.578 20.449 69.995 29.666l30.563 8.35a33.222 33.222 0 0 1 10.139 4.712c12.417 8.538 22.049 22.939 30.785 39.576 0.767 1.452 1.502 2.988 2.253 4.467 0.417 0.814 0.824 1.631 1.232 2.447a569.712 569.712 0 0 1 7.364 15.315l1.502 3.233c2.09 4.481 3.085 9.264 3.094 14.016 0 0.098 0.017 0.196 0.017 0.286-0.009 1.265-0.148 2.515-0.294 3.763-0.041 0.359-0.034 0.719-0.09 1.079-0.146 0.979-0.424 1.942-0.661 2.905-0.147 0.604-0.237 1.224-0.417 1.819-0.326 1.071-0.776 2.107-1.217 3.145-0.188 0.456-0.326 0.938-0.538 1.396a33.693 33.693 0 0 1-5.51 8.22c-35.014 38.41-57.684 90.998-62.802 144.184a239.113 239.113 0 0 0-1.102 22.784c0 17.895 0.719 34.303 2.082 49.348 9.51 105.333 50.254 143.898 93.259 157.155 16.384 5.054 33.104 6.433 48.55 6.433 21.226 0 44.866-2.612 66.744-13.788 41.765-21.331 77.13-73.896 77.13-199.148 0-41.61-11.242-84.043-31.219-120.763-9.149-16.809-20.123-32.425-32.687-46.205a33.225 33.225 0 0 1-5.502-8.214 33.321 33.321 0 0 1-3.198-13.813c0-0.089-0.019-0.179-0.027-0.276-0.008-1.013 0.116-2.024 0.205-3.036 0.049-0.613 0.032-1.226 0.122-1.829 0.074-0.499 0.23-0.997 0.319-1.494 0.212-1.111 0.399-2.229 0.726-3.331 0.008-0.05 0.032-0.091 0.049-0.14a33.294 33.294 0 0 1 1.698-4.496l1.495-3.233c11.827-25.617 23.917-49.617 41.634-61.806a33.393 33.393 0 0 1 10.138-4.712l30.573-8.35c19.332-7.951 39.96-16.768 60.287-25.502 3.281-1.406 6.571-2.818 9.828-4.221h0.009c15.634-6.728 31.136-13.39 46.01-19.658 8.728-3.689 17.431-6.704 25.848-9.618 9.669-3.352 17.567-6.232 23.911-9.08a448.73 448.73 0 0 0-4.492-4.561z m48.364 57.002c-14.813 9.058-31.191 14.734-45.89 19.825-7.723 2.679-15.029 5.209-21.731 8.042-14.791 6.244-30.196 12.865-45.739 19.543a1668.28 1668.28 0 0 0-4.146 1.779c-23.021 9.903-46.623 20.034-68.77 29.104a34.286 34.286 0 0 1-3.92 1.329l-24.147 6.597c-2.891 3.992-6.351 10.344-9.486 16.564 6.687 8.579 12.858 17.568 18.612 26.841 30.858 49.708 48.01 108.477 48.01 167.711 0 115.636-28.652 185.581-69.323 226.627-40.671 41.046-93.359 53.185-141.433 53.185h-0.01c-87.136 0-189.434-39.871-207.842-219.477-1.91-18.579-2.914-38.654-2.914-60.336 0-4.392 0.098-8.784 0.276-13.167 0.409-9.527 1.291-19.021 2.556-28.467 1.648-12.27 3.976-24.441 7.028-36.417 2.033-8.001 4.408-15.902 7.045-23.715 0.155-0.466 0.285-0.931 0.449-1.396 0.441-1.274 0.939-2.53 1.388-3.804 11.298-31.602 27.429-61.349 47.879-87.586-0.303-0.597-0.613-1.185-0.915-1.78-0.555-1.07-1.103-2.146-1.666-3.199-0.253-0.467-0.497-0.914-0.751-1.372a172.445 172.445 0 0 0-2.016-3.608 99.177 99.177 0 0 0-1.29-2.189c-0.131-0.227-0.27-0.456-0.408-0.685a69.245 69.245 0 0 0-2.115-3.224l0.025-0.009c-0.114-0.156-0.237-0.359-0.343-0.507l-24.147-6.588c-1.34-0.367-2.646-0.808-3.919-1.329-23.461-9.616-48.605-20.435-72.933-30.884-15.543-6.678-30.939-13.299-45.732-19.543-6.71-2.833-14.008-5.363-21.731-8.042-14.702-5.092-31.081-10.768-45.895-19.826-19.277 26.941-35.513 55.919-48.527 86.688-23.553 55.686-35.495 114.873-35.495 175.918S71.947 504.23 95.5 559.915c22.762 53.816 55.361 102.16 96.891 143.69s89.874 74.128 143.69 96.891C391.767 824.051 450.955 835.993 512 835.993c61.045 0 120.232-11.942 175.918-35.495 53.815-22.763 102.159-55.361 143.689-96.891 41.529-41.53 74.128-89.875 96.891-143.69 23.553-55.685 35.495-114.873 35.495-175.918s-11.942-120.232-35.495-175.918c-13.015-30.769-29.251-59.746-48.527-86.687z"  horiz-adv-x="1024" />


    <glyph glyph-name="hot" unicode="&#58913;" d="M348.05873778 894.80192h3.49297777c3.77173333-1.55989333 7.54460445-3.11409778 11.31292445-4.68309333 25.89240889-10.78044445 52.10453333-20.86001778 77.59985778-32.50631112 39.31477333-17.95868445 76.60316445-39.64586667 112.08931555-64.38912 28.61852445-19.95548445 55.21976889-42.37084445 80.37262222-66.47125333 9.56984889-9.16935111 18.47409778-19.11239111 26.98467556-29.2864 12.10254222-14.46912 24.08334222-29.09752889 35.17667556-44.34147555 17.58663111-24.1664 32.61326222-49.90634667 44.78976-77.29152 9.79626667-22.03648 18.47523555-44.42112 23.84554666-67.98904889 1.61109333-7.07356445 3.19715555-14.15054222 5.13820445-22.73507556 24.14592 33.03196445 29.69372445 70.78115555 36.73656889 109.71022223 13.75345778-21.57909333 27.09959111-41.62218667 39.52753778-62.21710223 20.33891555-33.70325333 39.76533333-67.97084445 55.59637333-104.05774222 10.88056889-24.80355555 21.59843555-49.77777778 30.41393777-75.35502222 8.37176889-24.29041778 15.14723555-49.24302222 20.8236089-74.31281778 5.17461333-22.86136889 8.73016889-46.17329778 8.57088-69.81745778-0.00796445-1.17191111 0.72476445-2.34609778 1.11274666-3.51914667v-30.27171555c-0.39253333-5.44199111-0.33792-10.96021333-1.25952-16.31118222-3.28248889-19.07712-6.14741333-38.27370667-10.56312889-57.09824-6.59114667-28.10311111-18.21809778-54.39715555-33.92967111-78.52487111-10.05226667-15.43623111-21.92156445-29.72785778-33.43928889-44.16398222-13.25511111-16.61383111-29.09980445-30.66652445-46.38492444-42.89991112-15.48629333-10.96135111-31.30936889-21.52334222-47.55911111-31.30709333-22.63836445-13.63057778-46.71146667-24.32455111-72.74723556-32.17863111 0.38684445 1.84206222 0.52792889 3.32686222 1.00920889 4.69447111 5.91416889 16.79815111 12.43136 33.40970667 17.70154667 50.40696889 7.92462222 25.55562667 14.60110222 51.46737778 17.64693333 78.15850666 1.92739555 16.87779555 4.85489778 33.71463111 5.54211555 50.6424889 1.14915555 28.27719111 0.03072 56.52935111-4.29738666 84.6336-3.70346667 24.05831111-8.92928 47.68995555-16.32142222 70.86648888-11.35957333 35.61472-26.97443555 69.23605333-46.46684445 101.13934222-20.60515555 33.72600889-44.44842667 64.88405333-72.32284444 92.90752-8.57884445 8.62435555-17.28056889 17.16565333-26.41806223 25.18471112-12.73173333 11.17525333-25.92768 21.82371555-40.10325333 33.68277333 0.9216-9.35822222 2.27328-16.87324445 2.28010667-24.39054222 0.01251555-16.80270222-0.16839111-33.63498667-1.17873778-50.40128-0.81237333-13.49973333-2.46215111-26.99946667-4.61027556-40.35697778-4.20977778-26.18026667-11.85564445-51.49923555-24.3347911-74.86577778-8.46279111-15.84469333-18.81315555-30.76664889-29.25454223-45.43601777-5.02897778-7.0656-12.21973333-12.59064889-18.66524444-19.04753778-10.78385778 34.0992-32.07964445 59.63662222-56.50887111 83.64373333-3.37123555-4.41457778-6.58318222-8.21020445-9.34912-12.30734222-26.07786667-38.63324445-50.74488889-78.07431111-68.87310222-121.23022223-13.71022222-32.63374222-24.86727111-65.96494222-29.39562667-101.30204444-2.51790222-19.64828445-4.24277333-39.15320889-2.45077333-59.05408 1.45976889-16.20536889 3.87754667-32.04778667 8.27164444-47.70474666 7.23512889-25.76497778 18.64817778-49.27943111 35.85706666-69.89141334 3.38033778-4.04935111 6.45802667-8.35128889 9.67452445-12.53831111h-1.16394667c-0.21048889 0.30378667-0.37774222 0.83171555-0.63715555 0.88064-12.67484445 2.43029333-25.38609778 4.67399111-38.03136 7.24081778-35.70688 7.24878222-69.68092445 19.38773333-101.87889778 36.46805333-32.19342222 17.07804445-60.92572445 38.46826667-85.02613333 66.09464889-14.63182222 16.77084445-27.64003555 34.6624-37.23377778 54.55758222-8.61297778 17.86083555-16.10183111 36.48853333-21.78844444 55.46439111-4.98346667 16.62634667-6.83690667 34.19818667-9.94304 51.37635556-0.99783111 5.51594667-1.58151111 11.10584889-2.3552 16.66275556v46.57265777c0.38456889 0.78506667 1.04675555 1.54965333 1.10819555 2.35861333 0.48014222 6.31808 0.32654222 12.73059555 1.33802667 18.95537778 3.74556445 23.04455111 7.92689778 46.11640889 17.72885333 67.45201778 4.46919111 9.73027555 10.66439111 18.99178667 17.58776889 27.18947556 8.78250667 10.40156445 20.01351111 18.76423111 28.57528889 29.31712 21.24913778 26.19050667 36.77297778 55.71356445 47.86517333 87.59523555 7.55256889 21.71221333 14.22563555 43.61898667 17.49560889 66.45418667 0.86698667 6.05070222 2.24142222 12.02972445 3.66933333 19.55271111 25.9072-36.96184889 45.96394667-75.38574222 63.68369778-115.35018667 2.64305778 2.01728 4.87879111 3.2768 6.54677334 5.06538667 14.18922667 15.20753778 28.79715555 30.06577778 42.27413333 45.88657778 22.46428445 26.37710222 39.61287111 56.1152 53.23776 87.9616 17.18499555 40.16128 25.67964445 82.29319111 28.18730667 125.65048889 0.85560889 14.79338667 0.22414222 29.79157333-1.14574223 44.56561778-1.97176889 21.23889778-4.57386667 42.46983111-8.12259555 63.49824-4.67626667 27.72195555-12.98887111 54.54734222-23.24138667 80.71850666-4.28259555 10.93404445-9.22282667 21.60526222-13.86382222 32.39480889z"  horiz-adv-x="1024" />


    <glyph glyph-name="sousuo" unicode="&#58934;" d="M936.07924064 52.077942440000015l-182.23171789 182.23171784c41.91329511 55.97117051 64.56209435 123.91756816 64.56209433 194.72760714 0 179.62840764-146.30603635 325.93444399-325.934444 325.93444401s-325.93444399-146.30603635-325.934444-325.93444401 146.30603635-325.93444399 325.934444-325.934444c77.05798358 0 149.43000865 26.29343356 207.48382738 74.45467334l180.66973171-180.66973176 55.45050847 55.19017744zM492.47517308 167.92524880999997c-143.96305712 0-260.85168762 117.14896149-260.85168761 260.85168757s117.14896149 260.85168762 260.85168761 260.85168763c143.96305712 0 260.85168762-117.14896149 260.85168759-260.85168763 0-67.42573564-25.51244051-131.20683689-71.85136302-179.88873864-49.72322588-52.06620511-116.88863049-80.96294896-189.00032457-80.96294893z"  horiz-adv-x="1024" />


    <glyph glyph-name="ubuntu" unicode="&#58912;" d="M512 896c282.581333 0 512-229.418667 512-512s-229.418667-512-512-512S0 101.418667 0 384 229.418667 896 512 896z m139.904-754.346667a68.352 68.352 0 1 1 68.309333-118.4 68.352 68.352 0 0 1-68.309333 118.4z m-139.904 42.666667a199.04 199.04 0 0 0-84.096 18.56L380.416 117.76c39.68-19.584 84.394667-30.762667 131.584-30.762667a294.826667 294.826667 0 0 1 79.36 10.922667 95.573333 95.573333 0 0 0 46.72 67.712 95.744 95.744 0 0 0 81.92 6.656 295.765333 295.765333 0 0 1 88.32 192.64l-97.493333 1.408A199.637333 199.637333 0 0 0 512 184.32zM312.32 384a199.68 199.68 0 0 0 84.906667 163.413333L347.306667 631.082667a297.344 297.344 0 0 1-122.922667-172.16 94.72 94.72 0 0 0 35.413333-74.24c0-30.037333-13.824-56.277333-35.413333-74.197334a297.386667 297.386667 0 0 1 122.922667-172.117333l49.92 83.84A195.626667 195.626667 0 0 0 312.32 384z m-148.48 68.352a68.352 68.352 0 1 1 0-136.661333 68.352 68.352 0 0 1 0 136.661333zM512 583.68a199.637333 199.637333 0 0 0 198.826667-181.973333l97.493333 1.450666a296.490667 296.490667 0 0 1-88.32 192.682667A95.829333 95.829333 0 0 0 591.36 670.293333 303.957333 303.957333 0 0 1 512 680.96c-47.36 0-91.946667-11.093333-131.584-30.72l47.488-85.12A198.954667 198.954667 0 0 0 512 583.68z m139.904 42.709333a68.394667 68.394667 0 0 1 93.397333 24.96 68.437333 68.437333 0 0 1-118.485333 68.309334 68.266667 68.266667 0 0 1 25.088-93.269334z"  horiz-adv-x="1024" />


    <glyph glyph-name="html" unicode="&#58916;" d="M64 896h896l-81.493333-920.021333L511.018667-128l-365.397334 104.021333L64 896z m299.989333-416l-9.898666 115.968 429.184-0.128 9.813333 111.872L230.912 707.84l29.781333-341.76h389.376l-13.909333-146.176-124.16-34.304-126.08 34.56-8.021333 90.026667H266.581333l14.08-177.962667L512 70.357333l229.504 61.568 31.744 348.032H363.989333z"  horiz-adv-x="1024" />


    <glyph glyph-name="vuejs" unicode="&#58944;" d="M819.072 827.392l0.128 0.256h-188.8L512 622.933333v-0.085333l-118.272 204.8H204.928v-0.213333H0l512-886.869334L1024 827.392"  horiz-adv-x="1024" />


    <glyph glyph-name="python" unicode="&#58980;" d="M610.56 888.32l38.4-8.533333 31.146667-11.093334 25.173333-12.8 19.2-13.653333 14.506667-14.506667 10.666666-14.506666 6.826667-14.08 4.266667-12.8 1.706666-11.093334 0.853334-8.533333-0.426667-5.546667V533.333333l-2.133333-26.88-5.546667-23.466666-8.96-19.626667-11.093333-16.213333-12.8-13.226667-14.08-10.666667-14.933334-8.106666-14.933333-5.973334-14.08-4.266666-12.8-2.986667-11.093333-1.706667-8.96-0.853333H376.746667l-29.44-2.133333-25.173334-5.973334-21.333333-9.386666-17.493333-11.52-14.08-13.653334-11.52-14.933333-8.533334-15.36-6.4-15.786667-4.266666-14.933333-2.986667-13.653333-1.706667-11.52-0.853333-8.96v-130.56H137.813333l-8.96 1.28-11.946666 2.986666-13.653334 5.12-14.933333 7.68-15.36 11.093334-15.36 15.36-14.933333 19.626666-13.653334 25.173334-11.946666 31.146666-8.96 37.546667-5.973334 44.8L0 385.28l2.56 52.053333 6.826667 44.373334 10.24 37.12 13.653333 30.293333 15.36 24.32 17.066667 18.773333 17.92 14.08 17.92 10.24 17.066666 6.826667 15.36 4.266667 13.653334 2.133333 10.24 0.426667h6.826666l2.56-0.426667h348.16v35.413333H266.24l-0.426667 117.333334-0.853333 15.786666 2.133333 14.506667 4.693334 13.226667 7.253333 11.946666 10.666667 11.093334 13.226666 9.813333 16.213334 8.533333 18.773333 7.68 21.76 6.4 24.746667 5.12 27.306666 4.266667 30.293334 2.56 32.853333 1.706667 35.84 0.853333 54.186667-2.133333 45.653333-5.546667z m-268.8-84.48l-9.813333-14.08-3.413334-17.493333 3.413334-17.493334 9.813333-14.506666 14.08-9.386667 17.493333-3.84 17.493334 3.84 14.08 9.386667 9.813333 14.506666 3.413333 17.493334-3.413333 17.493333-9.813333 14.08-14.08 9.386667-17.493334 3.84-17.493333-3.84-14.08-9.386667zM900.266667 635.306667l11.946666-2.56 13.653334-5.12 14.933333-7.68 15.36-11.52 15.36-14.933334 14.933333-20.053333 13.653334-25.173333 11.946666-31.146667 8.96-37.546667 5.973334-44.373333 2.133333-52.48-2.56-52.48-6.826667-44.373333-10.24-36.693334-13.653333-30.293333-15.36-24.32-17.066667-19.2-17.92-14.08-17.92-10.24-17.066666-6.826667-15.36-3.84-13.653334-2.133333-10.24-0.853333-6.826666 0.426666h-350.72v-34.986666h249.173333l0.426667-117.76 0.853333-15.36-2.133333-14.506667-4.693334-13.226667-7.253333-12.373333-10.666667-10.666667-13.226666-10.24-16.213334-8.533333-18.773333-7.253333-21.76-6.4-24.746667-5.546667-27.306666-3.84-30.293334-2.986667-32.853333-1.706666-35.84-0.426667-54.186667 1.706667-45.653333 5.973333-38.4 8.533333-31.146667 10.666667-25.173333 12.8-19.2 14.08-14.506667 14.506667-10.666666 14.506666-6.826667 14.08-4.266667 12.8-1.706666 10.666667-0.853334 8.533333 0.426667 5.546667v227.84l2.133333 27.306667 5.546667 23.04 8.96 19.626666 11.093333 16.213334 12.8 13.653333 14.08 10.24 14.933334 8.533333 14.933333 5.973334 14.08 4.266666 12.8 2.56 11.093333 1.706667 8.96 0.853333 5.546667 0.426667h249.173333l29.44 2.133333 25.173334 5.973334 21.333333 8.96 17.493333 11.946666 14.08 13.653334 11.52 14.933333 8.533334 15.36 6.4 15.36 4.266666 14.933333 2.986667 13.653334 1.706667 11.946666 0.853333 8.96V637.013333h89.173333l5.973334-0.426666 8.96-1.28z m-276.053334-608l-9.813333-14.08-3.413333-17.493334 3.413333-17.493333 9.813333-14.08 14.08-9.813333 17.493334-3.413334 17.493333 3.413334 14.08 9.813333 9.813333 14.08 3.413334 17.493333-3.413334 17.493334-9.813333 14.08-14.08 9.813333-17.493333 3.413333-17.493334-3.413333-14.08-9.813333z"  horiz-adv-x="1029" />


    <glyph glyph-name="GitHub" unicode="&#59093;" d="M64.6 384c0-195.6 125.4-361.9 300.1-422.9 23.5-5.9 19.9 10.8 19.9 22.2v77.6c-135.8-15.9-141.3 74-150.5 89-18.5 31.5-61.9 39.5-49 54.5 31 15.9 62.5-4 98.9-58 26.4-39.1 77.9-32.5 104.1-26 5.7 23.5 17.9 44.5 34.7 60.9-140.7 25.2-199.4 111.1-199.4 213.3 0 49.5 16.4 95.1 48.4 131.8-20.4 60.6 1.9 112.4 4.9 120.1 58.2 5.2 118.5-41.6 123.3-45.3 33.1 8.9 70.8 13.7 112.9 13.7 42.4 0 80.3-4.9 113.5-13.9 11.3 8.6 67.3 48.8 121.4 43.9 2.9-7.7 24.7-58.3 5.5-118.1 32.5-36.8 49-82.8 49-132.4 0-102.3-59-188.3-200.2-213.2 23.5-23.3 38.1-55.5 38.1-91.1v-112.7c0.8-9 0-17.9 15.1-17.9C832.7 19 960.4 186.6 960.4 383.9c0 247.5-200.6 447.9-447.9 447.9C265 831.9 64.6 631.5 64.6 384z"  horiz-adv-x="1024" />


    <glyph glyph-name="CSS" unicode="&#59141;" d="M512 384zM128.3 831.7l69.8-805.8 313.4-89.5L825.8 26l69.9 805.7H128.3z m580.9-669.3l-197.1-56.2-196.8 56.5L301.9 318h96.4l6.9-79.1 107.1-30.3 0.3-0.5h0.1l106.9 29.7L630.7 366H406.1l-8 99.9h241.1l8.8 101.9H280.2l-8 97.9H753l-43.8-503.3z"  horiz-adv-x="1024" />


    <glyph glyph-name="fangwen" unicode="&#58880;" d="M512 121.29848889000004A549.00053333 549.00053333 0 0 0 100.98915555 306.63111111a116.74737778 116.74737778 0 0 0 0 154.86293334 548.57955555 548.57955555 0 0 0 822.0672-0.07964445 116.90666667 116.90666667 0 0 0 0.07964445-154.73777778A549.54666667 549.54666667 0 0 0 512 121.29848889000004z m0 445.67893333a468.93511111 468.93511111 0 0 1-351.28888889-158.37866667 37.41013333 37.41013333 0 0 1-0.07964444-49.12924444 468.93511111 468.93511111 0 0 1 702.78257778-0.07964444 37.69457778 37.69457778 0 0 1-0.07964445 49.20888888A469.18542222 469.18542222 0 0 1 512 566.97742222zM512 261.12a124.54115555 124.54115555 0 1 0 124.52977778 124.59804445A124.74595555 124.74595555 0 0 0 512 261.12z m0 169.34684445a44.80568889 44.80568889 0 1 1 44.77155555-44.77155556A44.83982222 44.83982222 0 0 1 512 430.47822222z"  horiz-adv-x="1024" />


    <glyph glyph-name="pinglun3" unicode="&#58883;" d="M1007.916504 895.978918H66.926727a66.926727 66.926727 0 0 1-66.926727-66.926727v-643.500477a66.926727 66.926727 0 0 1 66.926727-66.926726h208.14212l4.350237-3.011703 394.533054-234.243543a52.202847 52.202847 0 0 1 25.766789-7.696574c19.074117 0 33.463363 15.058514 33.463364 41.159937l60.234054 205.465051h216.173327a66.926727 66.926727 0 0 1 66.926727 66.926727V829.052191a66.926727 66.926727 0 0 1-68.599895 66.926727z m0-710.427204h-234.243544a33.463363 33.463363 0 0 1-31.455561-22.420453l-15.727781-44.506273L664.917029-40.995255l-256.99863 159.620243-52.53748 30.45166-63.915024 36.475066H66.926727V829.052191h940.989777zM264.025937 506.800002m-66.926727 0a66.926727 66.926727 0 1 1 133.853453 0 66.926727 66.926727 0 1 1-133.853453 0ZM535.413813 506.800002m-66.926726 0a66.926727 66.926727 0 1 1 133.853453 0 66.926727 66.926727 0 1 1-133.853453 0ZM806.467056 506.800002m-66.926726 0a66.926727 66.926727 0 1 1 133.853453 0 66.926727 66.926727 0 1 1-133.853453 0Z"  horiz-adv-x="1076" />


    <glyph glyph-name="dingyue-" unicode="&#58897;" d="M874.6 398.5c-0.9 206.2-4.9 410.4-4.9 412.4l-0.4 19.6H158.6l-0.4-19.6c0-2-4.3-207-4.7-413.7-0.3-121.5 0.8-219.8 3.2-292.3 1.4-43.3 3.4-77.8 5.7-102.6 3.7-39.1 8-50.9 14.1-58l8.6-10 12.6 4c77.1 24.7 267.6 147.1 317.9 179.9 22-17 73-55.7 127.9-92.5 43.1-28.9 80.4-51.1 110.7-66 42.9-21.1 72.3-27.9 92.6-21.4l6.7 2.2 3.9 5.9c6.7 10.3 19 29.2 17.2 452.1zM833 118c-2-89.9-5.4-126.7-7.7-141.7-8.9 1.1-25.2 5.5-53.2 19.3-28.7 14.1-64.4 35.4-106 63.3-71.5 47.9-136.3 99.1-136.9 99.6l-11.4 9-12.1-8c-2.2-1.5-206.3-135.9-300.9-175.8-2.7 18-6.2 56-8.6 135.7-2.2 72.9-3.1 170-2.7 288.8 0.5 165.3 3.3 327.3 4.3 382.2H830c1-55 3.7-217.6 4.5-383.3 0.6-118.9 0.1-216.2-1.5-289.1zM532 703.5h-40V487H325.4v-40H492v-195.5h40V447h166.6v40H532z"  horiz-adv-x="1024" />


    <glyph glyph-name="shijian3" unicode="&#58929;" d="M512-128C230.4-128 0 102.4 0 384S230.4 896 512 896s512-230.4 512-512-230.4-512-512-512z m0 981.333333C253.866667 853.333333 42.666667 642.133333 42.666667 384s211.2-469.333333 469.333333-469.333333 469.333333 211.2 469.333333 469.333333S770.133333 853.333333 512 853.333333zM795.733333 349.866667h-298.666666c-10.666667 0-21.333333 8.533333-21.333334 21.333333 0 10.666667 8.533333 21.333333 21.333334 21.333333h298.666666c10.666667 0 21.333333-8.533333 21.333334-21.333333s-10.666667-21.333333-21.333334-21.333333zM518.4 669.866667v-298.666667c0-10.666667-8.533333-21.333333-21.333333-21.333333-10.666667 0-21.333333 8.533333-21.333334 21.333333v298.666667c0 10.666667 8.533333 21.333333 21.333334 21.333333 10.666667 0 21.333333-10.666667 21.333333-21.333333z"  horiz-adv-x="1024" />


    <glyph glyph-name="tubiao-1" unicode="&#58920;" d="M564.965517 323.972414c-3.531034 0-7.062069 1.765517-10.593103 3.531034L278.951724 511.117241c-5.296552 3.531034-7.062069 8.827586-7.062069 14.124138 0 5.296552 3.531034 12.358621 8.827586 14.124138l275.42069 173.02069c5.296552 3.531034 12.358621 3.531034 19.42069 0l286.013793-178.317241c5.296552-3.531034 8.827586-8.827586 8.827586-14.124138s-5.296552-12.358621-10.593103-14.124138L573.793103 325.737931c-3.531034-1.765517-7.062069-1.765517-8.827586-1.765517zM321.324138 525.241379L564.965517 362.813793l252.468966 157.131035-252.468966 158.896551L321.324138 525.241379zM570.262069 188.027586c-3.531034 0-7.062069 0-8.827586 1.765517l-280.717242 165.958621c-8.827586 5.296552-10.593103 15.889655-7.062069 24.717242 5.296552 8.827586 15.889655 10.593103 24.717242 7.062068l271.889655-160.662068 271.889655 171.255172c8.827586 5.296552 19.42069 3.531034 24.717242-5.296552 5.296552-8.827586 3.531034-19.42069-5.296552-24.717241l-280.717242-176.551724c-5.296552-1.765517-8.827586-3.531034-10.593103-3.531035zM570.262069 64.441379c-3.531034 0-7.062069 0-8.827586 1.765518l-280.717242 165.95862c-8.827586 5.296552-10.593103 15.889655-7.062069 24.717242 5.296552 8.827586 15.889655 10.593103 24.717242 7.062069l271.889655-160.662069 271.889655 171.255172c8.827586 5.296552 19.42069 3.531034 24.717242-5.296552 5.296552-8.827586 3.531034-19.42069-5.296552-24.717241l-280.717242-176.551724c-5.296552-1.765517-8.827586-3.531034-10.593103-3.531035z"  horiz-adv-x="1122" />


    <glyph glyph-name="fenlei" unicode="&#58917;" d="M911.7 291.9L822 381.6c28.4 35.4 45.5 80.3 45.5 129.3 0 114.2-92.6 206.7-206.8 206.7-114.2 0-206.8-92.5-206.8-206.7s92.6-206.7 206.8-206.7c43.9 0 84.6 13.8 118.1 37.1l91.1-91.1c4.1-4.1 9.6-6.1 15.5-6.1 7.7 0 16 3.4 22.5 9.9 11.5 11.5 13.2 28.5 3.8 37.9z m-251 71.3c-81.5 0-147.7 66.2-147.7 147.6 0 81.4 66.2 147.6 147.7 147.6s147.8-66.2 147.8-147.6c0-81.4-66.3-147.6-147.8-147.6zM158.5 619.1h216.6c10.9 0 19.7 8.8 19.7 19.7v19.7c0 10.9-8.8 19.7-19.7 19.7H158.5c-10.8 0-19.7-8.8-19.7-19.7v-19.7c0-10.9 8.9-19.7 19.7-19.7zM158.5 304h256c10.9 0 19.7 8.9 19.7 19.7v19.7c0 10.9-8.8 19.7-19.7 19.7h-256c-10.8 0-19.7-8.8-19.7-19.7v-19.7c0-10.9 8.9-19.7 19.7-19.7zM847.8 87.39999999999998H158.5c-10.8 0-19.7-8.8-19.7-19.7V48c0-10.8 8.8-19.7 19.7-19.7h689.3c10.8 0 19.7 8.8 19.7 19.7v19.7c0 10.9-8.9 19.7-19.7 19.7z"  horiz-adv-x="1024" />


    <glyph glyph-name="hot3" unicode="&#58921;" d="M149.333333 343.424C149.333333 141.909333 311.744-21.333333 512-21.333333c200.597333 0 362.666667 163.584 362.666667 367.232 0 103.573333-47.957333 199.552-129.536 265.066666a337.642667 337.642667 0 0 0-40.746667-92.16c-11.264-17.770667-31.509333-39.232-61.696-66.261333l-68.458667-61.312-2.645333 91.861333a1808.341333 1808.341333 0 0 0-0.938667 45.397334c0 126.72-95.637333 235.050667-225.728 257.109333a192.298667 192.298667 0 0 1-16.576 1.834667c-3.072-29.845333-6.016-50.24-9.109333-62.336-14.890667-58.368-49.088-113.642667-102.229333-174.101334l-3.946667-4.48C171.904 490.154667 149.333333 419.029333 149.333333 343.445333z m515.498667 297.962667c2.005333 8.469333 5.376 23.637333 10.048 45.333333l11.690667 54.122667 49.344-25.066667c25.301333-12.864 42.965333-23.061333 54.186666-31.637333C896.554667 602.709333 960 479.466667 960 345.898667 960 95.296 759.893333-106.666667 512-106.666667 264.533333-106.666667 64 94.890667 64 343.424c0 94.250667 28.672 183.765333 81.493333 255.274667l2.368 2.944 5.141334 5.824c44.949333 51.114667 72.597333 95.786667 83.541333 138.730666 2.730667 10.730667 6.485333 41.536 10.581333 89.429334l3.413334 40.192 40.32-1.173334c31.744-0.917333 54.016-2.453333 68.394666-4.906666 147.2-24.96 261.589333-135.317333 289.941334-274.026667a250.24 250.24 0 0 1 15.637333 45.674667z"  horiz-adv-x="1024" />


    <glyph glyph-name="github" unicode="&#61876;" d="M347.8 101.2c0-4-4.6-7.2-10.4-7.2-6.6-0.6-11.2 2.6-11.2 7.2 0 4 4.6 7.2 10.4 7.2 6 0.6 11.2-2.6 11.2-7.2z m-62.2 9c-1.4-4 2.6-8.6 8.6-9.8 5.2-2 11.2 0 12.4 4s-2.6 8.6-8.6 10.4c-5.2 1.4-11-0.6-12.4-4.6z m88.4 3.4c-5.8-1.4-9.8-5.2-9.2-9.8 0.6-4 5.8-6.6 11.8-5.2 5.8 1.4 9.8 5.2 9.2 9.2-0.6 3.8-6 6.4-11.8 5.8zM505.6 880C228.2 880 16 669.4 16 392c0-221.8 139.6-411.6 339-478.4 25.6-4.6 34.6 11.2 34.6 24.2 0 12.4-0.6 80.8-0.6 122.8 0 0-140-30-169.4 59.6 0 0-22.8 58.2-55.6 73.2 0 0-45.8 31.4 3.2 30.8 0 0 49.8-4 77.2-51.6 43.8-77.2 117.2-55 145.8-41.8 4.6 32 17.6 54.2 32 67.4-111.8 12.4-224.6 28.6-224.6 221 0 55 15.2 82.6 47.2 117.8-5.2 13-22.2 66.6 5.2 135.8 41.8 13 138-54 138-54 40 11.2 83 17 125.6 17s85.6-5.8 125.6-17c0 0 96.2 67.2 138 54 27.4-69.4 10.4-122.8 5.2-135.8 32-35.4 51.6-63 51.6-117.8 0-193-117.8-208.4-229.6-221 18.4-15.8 34-45.8 34-92.8 0-67.4-0.6-150.8-0.6-167.2 0-13 9.2-28.8 34.6-24.2C872.4-19.6 1008 170.2 1008 392 1008 669.4 783 880 505.6 880zM210.4 190.2c-2.6-2-2-6.6 1.4-10.4 3.2-3.2 7.8-4.6 10.4-2 2.6 2 2 6.6-1.4 10.4-3.2 3.2-7.8 4.6-10.4 2z m-21.6 16.2c-1.4-2.6 0.6-5.8 4.6-7.8 3.2-2 7.2-1.4 8.6 1.4 1.4 2.6-0.6 5.8-4.6 7.8-4 1.2-7.2 0.6-8.6-1.4z m64.8-71.2c-3.2-2.6-2-8.6 2.6-12.4 4.6-4.6 10.4-5.2 13-2 2.6 2.6 1.4 8.6-2.6 12.4-4.4 4.6-10.4 5.2-13 2z m-22.8 29.4c-3.2-2-3.2-7.2 0-11.8 3.2-4.6 8.6-6.6 11.2-4.6 3.2 2.6 3.2 7.8 0 12.4-2.8 4.6-8 6.6-11.2 4z"  horiz-adv-x="1024" />


    <glyph glyph-name="html1" unicode="&#61904;" d="M128 832l69.8-791.6L511-64l315.2 104.4L896 832H128z m616.4-255.8H376.8l8.2-98.8h351.2l-27.2-296.8-195.8-54v-0.6h-2.2l-197.4 54.6-12 151.6h95.4L404 256l107-29 107.4 29 12 124.4H296.6L271 671.6h482.2l-8.8-95.4z"  horiz-adv-x="1024" />


    <glyph glyph-name="python1" unicode="&#61974;" d="M399.58718 823.2c-90.4-16-106.8-49.4-106.8-111.2v-81.4h213.8v-27.2h-294c-62.2 0-116.6-37.4-133.6-108.4-19.6-81.4-20.4-132.2 0-217.2 15.2-63.2 51.4-108.4 113.6-108.4H265.98718v97.6c0 70.6 61 132.8 133.6 132.8h213.6c59.4 0 106.8 49 106.8 108.6V712.2c0 58-48.8 101.4-106.8 111.2-71.6 11.8-149.4 11.2-213.6-0.2z m-13.4-56.8c22 0 40.2-18.4 40.2-40.8s-18-40.6-40.2-40.6c-22.2 0-40.2 18.2-40.2 40.6 0.2 22.6 18 40.8 40.2 40.8z m370.4-162.8v-95c0-73.6-62.4-135.6-133.6-135.6H409.38718c-58.4 0-106.8-50-106.8-108.6v-203.6c0-58 50.4-92 106.8-108.6 67.6-19.8 132.6-23.4 213.6 0 53.8 15.6 106.8 47 106.8 108.6v81.4H516.38718v27.2h320.4c62.2 0 85.2 43.4 106.8 108.4 22.4 67 21.4 131.4 0 217.2-15.4 61.8-44.6 108.4-106.8 108.4h-80.2zM636.38718 88c22.2 0 40.2-18.2 40.2-40.6 0-22.6-18-40.8-40.2-40.8-22 0-40.2 18.4-40.2 40.8 0.2 22.6 18.2 40.6 40.2 40.6z"  horiz-adv-x="1024" />


    <glyph glyph-name="vuejs1" unicode="&#62047;" d="M777.8 767.4H624l-112-177.2-96 177.2H64L512 0 960 767.4h-182.2z m-602.4-64h107.6L512 307 740.8 703.4h107.6L512 127 175.4 703.4z"  horiz-adv-x="1024" />


    <glyph glyph-name="weibo1" unicode="&#58927;" d="M434.6 634.6c-63 5.3-209.2-42.5-345.8-265.1 0 0-100.2-180.1 103.7-288.1 0 0 170.2-101.2 410.6-30.1 0 0 243.9 80.7 221.6 249.9 0 0-18.5 70.1-104.7 90.6 0 0-26.6 3.5-11.6 30.1 0 0 38.2 77.9-36.4 110 0 0-66.5 15.9-147.2-24.8 0 0-53.1-30.1-27.6 35.4-0.6 0.8 11.8 85.8-62.6 92.1z m242.9-365.3c0-92.1-118.9-193.3-264.4-193.3-171 0-264.4 74.6-264.4 167.5 0 92.1 134.8 180.9 281 180.9 145.8 0 247.8-63 247.8-155.1z m0 0M530.2 237.2c-4.3-67.3-61.2-119.7-136.6-122.4-91.3-3.5-151.5 38.2-140.9 120.7 8.1 67.3 66.5 124.2 140.9 124.2 75.4-0.1 141.9-40.8 136.6-122.5z m-89.5 18c0 9.9-8.1 17.7-17.7 17.7s-17.7-8.1-17.7-17.7 8.1-17.7 17.7-17.7c9.6-1 17.7 6.8 17.7 17.7z m-47.8-42.8c0 24-22.3 43.5-47.1 40s-48.8-22.3-48.8-46c0-24 20.5-41.7 46-41.7 25.8-1.1 49.9 23.7 49.9 47.7z m279.2 449.5c4.3 1.8 8.1 2.5 12.4 3.5 4.3 0.8 8.9 1.8 14.2 2.5-15.2-1.8-2.5-0.8 0 0 3.5 0 7.1 0.8 11.6 0.8h22.3c4.3 0 8.1-0.8 12.4-0.8-11.6 1.8-3.5 0.8-0.8 0 2.8-0.8 5.3-0.8 8.9-1.8 8.9-1.8 17.7-4.3 26.6-8.1 2.5-0.8 4.3-1.8 7.1-2.5-8.9 3.5-0.8 0 0.8 0 5.3-2.5 10.6-5.3 16.7-8.9 4.3-2.5 9.9-6.1 14.2-8.9 2.5-1.8 4.3-3.5 7.1-5.3-7.1 5.3 0.8-0.8 1.8-1.8 9.9-8.1 18.5-16.7 27.6-26.6 0.8-0.8 7.1-8.9 0.8-0.8 1.8-1.8 2.5-4.3 4.3-6.1 2.5-4.3 5.3-8.9 8.1-12.4 2.5-4.3 4.3-8.9 6.1-13.4 3.5-8.1-2.5 8.1 0 0 0.8-2.5 1.8-5.3 3.5-8.9 2.5-8.1 4.3-16.7 6.1-25.8 0-1.8 0.8-4.3 0.8-6.1-1.8 11.6-0.8 4.3 0 1.8 0.8-4.3 0.8-8.9 0.8-14.2 0-7.1 0-15.2-0.8-22.3 0-3.5-0.8-7.1-0.8-10.6 1.8 14.2 0 0-0.8-2.5-1.8-9.9-4.3-18.5-7.1-27.6-1.8-5.3-8.1-18.5-0.8-2.5-8.1-17.7-5.3-39 13.4-49.6 15.9-8.9 41.7-5.3 49.6 13.4 22.3 48.8 26.6 107.3 11.6 159.6-26.6 94.1-118.9 157.9-213.8 165.7-26.6 1.8-55.9 0-80.7-8.9-18.5-6.1-31.1-24.8-25.8-44.3 2.7-19.5 23.9-33.6 42.6-26.6z m0 0M690.6 561c2.5 0.8 4.3 0.8 7.1 1.8 8.1 1.8-4.3 0 2.5 0 3.5 0 8.1 0.8 11.6 0.8 14.2 0 30.1-3.5 41.7-14.2 1.8-1.8 3.5-3.5 6.1-5.3 0 0 5.3-6.1 2.5-3.5 1.8-1.8 2.5-4.3 3.5-6.1 1-1.8 1.8-2.5 1.8-4.3-0.8 1.8-0.8 1.8 0-0.8 1.8-4.3 2.5-8.9 3.5-13.4 1.8-7.1 0 4.3 0-1.8v-18.7c0-1.8 0-3.5-0.8-4.3 0.8 8.1 0 0.8 0 0-0.8-2.5-0.8-5.3-1.8-8.1-3.5-12.4 4.3-26.6 16.7-29.3 13.4-3.5 25.8 4.3 29.3 16.7 12.4 40 2.5 87-29.3 114.3-28.3 25.8-72.9 34.7-110 24-26.9-9.8-13.5-55.9 15.6-47.8z m0 0"  horiz-adv-x="1024" />


    <glyph glyph-name="js" unicode="&#60520;" d="M707.072 247.552c-15.36-8.704-36.864-13.312-63.488-13.312-30.208 0-52.224 5.632-66.56 15.872-15.872 11.776-25.6 31.744-29.696 59.392h-59.392c2.56-46.592 19.456-80.384 50.176-101.888 25.088-17.408 60.416-26.112 105.472-26.112 46.592 0 82.944 9.728 108.544 28.16 25.6 18.944 38.4 45.056 38.4 77.824 0 33.792-15.872 59.904-47.616 78.848-14.336 8.192-46.08 20.48-95.744 35.84-33.792 10.752-54.784 18.432-62.464 22.528-17.408 9.216-25.6 22.016-25.6 37.376 0 17.408 7.168 30.208 22.528 37.888 12.288 6.656 29.696 9.728 52.736 9.728 26.624 0 47.104-4.608 60.416-14.848 13.312-9.728 23.04-26.112 28.16-48.64h59.392c-3.584 39.936-18.432 69.632-44.032 88.576-24.064 17.92-57.856 26.624-100.864 26.624-39.424 0-71.68-8.704-97.28-26.624-27.648-18.432-40.96-44.032-40.96-76.288s13.824-56.832 41.984-73.728c10.752-6.144 38.912-16.384 83.968-30.72 40.448-12.288 64-20.48 71.168-24.064 22.528-11.264 34.304-26.624 34.304-46.08 0-15.36-8.192-27.136-23.552-36.352zM884.864 672.16L557.984 861.44a101.088 101.088 0 0 1-101.056 0L130.24 672.128A101.12 101.12 0 0 1 80 584.928v-401.312c0-36.384 19.712-70.016 51.424-87.872l117.792-66.176c1.28-0.704 2.688-0.768 4.032-1.312 15.648-7.616 34.272-11.52 57.472-11.52 42.496 0 75.36 15.52 94.816 37.024 17.408 20.48 26.112 51.2 26.112 93.184V554.24h-59.904v-405.248c0-26.112-4.608-45.056-13.824-56.832-9.216-11.776-24.064-17.92-44.032-17.92-2.688 0-18.656 4.096-31.2 9.408l-0.16 0.032c-0.736 0.48-1.184 1.248-1.952 1.664l-117.76 66.176a36.96 36.96 0 0 0-18.816 32.128V584.928c0 13.088 7.04 25.28 18.336 31.84l326.656 189.28a36.8 36.8 0 0 0 36.896 0l326.88-189.28c11.328-6.592 18.368-18.784 18.368-31.872V182.4c0-12.864-6.88-24.96-17.92-31.552l-315.744-188.672a36.8 36.8 0 0 0-36.896-0.512l-67.168 37.76a32 32 0 1 1-31.392-55.808l67.2-37.76a100.832 100.832 0 0 1 101.056 1.376l315.744 188.672a101.216 101.216 0 0 1 49.088 86.496V584.928a100.992 100.992 0 0 1-50.24 87.232z"  horiz-adv-x="1024" />


    <glyph glyph-name="shujukuleixingtubiao-kuozhan-" unicode="&#58884;" d="M971.5 337.1c-2.4 2.7-4.8 5.1-7 7.8-6.9 10.4-15.2 19.6-24.6 27.1-7.5 5.9-24 14.1-27.2 23.9l-0.4 0.6c5.1 0.5 11.4 2.7 16.2 4.2 8.1 2.4 15.3 2 23.6 4.2 3.7 1.1 7.5 2.4 11.4 3.8v2.4c-4.2 4.8-7.4 11.4-11.7 16-12.1 12.2-25.2 23.2-38.9 33.1-7.4 5.4-16.8 8.9-24.6 13.4-2.8 1.7-7.5 2.4-9.1 5.1-4.2 5.9-6.7 13.7-9.6 20.6-6.9 15.4-13.3 30.9-19.3 46.8-4.2 10.5-6.9 21.1-12 30.7-24.3 45.8-50.7 73.5-91.2 100.6-8.7 5.6-19.1 8-30.2 11-5.9 0.3-11.7 0.8-17.7 1.1-3.8 2-7.7 6.9-11 9.5-13.5 9.6-48.1 30.6-58 2.9-6.3-17.5 9.4-34.6 14.9-43.5 4.1-6.2 9.1-13.2 12-20.2 1.7-4.7 2.1-9.5 3.8-14.3 3.7-11.9 7.3-25 12.3-36.1 2.6-5.6 5.4-11.6 8.7-16.6 1.8-3 5.1-4.4 5.9-9.2-3.3-5.4-3.6-13.4-5.4-20.2-8.4-30.4-5.1-68 6.9-90.5 3.8-6.6 12.8-21.5 24.8-15.8 10.6 4.8 8.3 20.2 11.4 33.6 0.7 3.2 0.3 5.4 1.7 7.5v-0.6c3.3-7.5 6.6-14.8 9.6-22.3 7.3-13.2 19.9-26.9 30.6-36 5.7-4.8 10.2-13.2 17.2-16.1v0.8h-0.5c-1.5 2.3-3.6 3.5-5.4 5.4-4.5 5-8.6 10.4-12.4 16.1-9.9 15.5-18.7 31.9-26.4 48.9-3.8 8.4-7.1 17.6-10.2 25.9-1.5 3.2-1.5 8-3.8 9.6-3.6-5.9-8.7-11-11.4-18.2-4.5-11.6-4.9-25.9-6.6-40.6-0.9-0.3-0.5 0-0.9-0.6-7.5 2.1-10.2 11-12.9 18.5-7 19.1-8.2 49.8-2.1 71.8 1.7 5.6 8.7 23.5 5.9 28.8-1.5 5.1-6.1 8-8.7 12.2-3.3 5.4-6.2 11.1-8.4 17.2-5.7 15.1-8.4 31.8-14.7 46.8-2.8 6.9-7.8 14.3-11.7 20.6-4.5 7.2-9.4 12.3-12.9 20.9-1.2 3-2.8 7.8-0.9 11 0.5 2.1 1.5 3 3.3 3.6 3.2 2.9 11.9-0.9 14.9-2.6 8.7-4.1 16.1-7.8 23.4-13.4 3.3-2.7 6.9-7.8 11.1-9h4.9c7.5-2 16.1-0.6 23.1-3 12.5-4.5 23.8-11.3 33.9-18.5 31.2-22.7 56.6-54.5 73.5-92 2.8-6.2 4.1-11.9 6.6-18.4 4.9-13.2 11.1-26.6 16.1-39.4 4.9-12.6 9.6-25.6 16.8-36.1 3.6-5.6 17.7-8.6 24-11.4 4.8-2.4 12-4.7 16.2-7.5 8.1-5.6 16-12 23.6-18.2 3.8-3 15.6-9.8 16.4-15.2-18.9 0.6-33.5-1.7-45.8-7.5-3.6-1.7-9.1-1.7-9.6-6.8 2-2.1 2.2-5.6 3.8-8.6 2.8-5.4 7.7-12.6 12.1-16.4 4.9-4.4 9.9-8.7 15.1-12.5 9.1-6.5 19.5-10.2 28.5-16.7 5.1-3.8 10.3-8.6 15.6-12.6 2.6-2 4.2-5.6 7.5-6.9v0.8c-2 2.6-2.5 6-4.1 8.7zM238.9 341l-47.5-163.5h-0.3L144 341h-40.5C95.8 271.79999999999995 87 197.70000000000005 85 118.60000000000002h36.4c0.7 59.2 0.4 110.8 4.2 169.8h0.4l46.7-169.8h31.4L250 288.5h0.3c5.4-59 5.9-110.6 6.9-169.8h39.4c-1.6 67.1-10.6 141.3-19 222.5h-38.7v-0.2zM373.7 150.20000000000005c-0.7 9.2-2 16-7.3 37.6l-25.6 95h-38.7l35.8-126.9c5.4-19.1 8.1-31.8 8.1-37.9 0-9-0.5-12.2-3.8-16.9-5.8-5.9-13.3-8.9-22.8-8.9-5.1 0-9.8 0.3-13.6 1.1v-27.4c7.9-3.8 14.5-5.6 19.9-5.6 20.2 0 38.8 14.3 55.8 43.2 21.8 37.3 39.3 97.1 52.7 179.4h-37.6c-5.6-50.7-8.7-90-22.9-132.7zM853.7 341h-37.8v-222.4h92.8v34.9h-55zM755.7 133.29999999999995c3.2 3 6.2 6.3 9 10.1 15.3 20.3 22.8 50.6 22.8 90.6 0 73.6-25.3 110.5-76 110.5-24.8 0-44.2-9.3-58.2-28-15.2-20.5-22.8-50.6-22.8-90.3 0-39.1 6.7-67.9 20.2-86.1 12.4-16.6 30.9-24.7 55.8-24.7 9.4 0 17.8 1.4 25.6 3.9l46.7-31 12.7 25h-0.1l-35.7 20z m-46 21.4c-13.6 0-23.5 5.9-29.8 17.3v0.2c-6.9 12.5-10.3 32.7-10.3 60.2 0 48.3 12.9 72.6 38.7 72.6 13.5 0 23.5-5.9 29.7-17.3 6.9-12.6 10.3-32.5 10.3-59.8 0.1-48.7-12.8-73.2-38.6-73.2zM594.2 227.10000000000002s-28 18.4-41.8 26.9c-15.2 9.6-24.8 20.9-24.8 34.2 0 8.1 4.6 14.3 10 19.6 5.4 5.6 13.1 8.3 23.1 8.3 12.9-0.2 25.7-6.3 37.5-12.2l7.5 29.7c-14.8 11-31.3 16.6-49.4 16.6-17.7 0-31.9-5.6-43-16.7-11.1-11-21.9-31.6-21.9-49.7 0-21.8 7.4-34.9 22.3-47.4 0 0 27.3-17.9 41.1-26.5 14.8-9.5 22.8-20.8 22.8-34 0.1-9.6-3.8-19-10.6-24.7-6.7-5.9-14.5-3.3-22.3-2.9-12.5 0.6-26.5 4.4-42 13.2l-8.3-25.1c18-13.8 36.3-20.8 55.4-20.8 20.5 0 36.7 6 48.8 18.1 12.1 12 18.2 27.5 18.2 46.5l0.3-0.2c0.1 21.8-7.6 34.9-22.9 47.1zM706.9 648.1c-4.1-0.2-6.9-0.6-9.8-1.4v-0.5h0.5c1.8-4.2 5.1-7.2 7.5-11 1.8-4.4 3.6-8.6 5.4-12.9l0.5 0.6c3.3 2.7 4.9 6.9 4.9 13.4-1.5 2-1.6 3.8-2.8 5.6-1.1 2.8-4.2 4.1-6.2 6.2z"  horiz-adv-x="1024" />


    <glyph glyph-name="JS" unicode="&#58961;" d="M1012.778082 396.624658l-235.660274 406.79452c-5.610959 11.221918-18.235616 16.832877-30.860274 16.832877H277.742466c-12.624658 0-23.846575-7.013699-30.860274-16.832877L11.221918 396.624658c-5.610959-11.221918-5.610959-23.846575 0-35.068494l235.660274-406.79452c5.610959-11.221918 18.235616-16.832877 30.860274-16.832877h469.917808c12.624658 0 23.846575 7.013699 30.860274 16.832877l235.660274 406.79452c4.208219 11.221918 4.208219 23.846575-1.40274 35.068494zM726.619178 8.065753H297.380822L82.761644 379.791781l214.619178 371.726027h429.238356l214.619178-371.726027-214.619178-371.726028zM634.038356 587.39726c16.832877 0 32.263014-18.235616 32.263014-37.873972 0-19.638356 15.430137-35.068493 35.068493-35.068493s35.068493 15.430137 35.068493 35.068493c0 60.317808-46.290411 108.010959-102.4 108.010959-30.860274 0-58.915068-14.027397-77.150685-37.873973-4.208219 14.027397-18.235616 23.846575-33.665753 23.846575H381.545205c-19.638356 0-35.068493-15.430137-35.068493-35.068493s15.430137-35.068493 35.068493-35.068493h35.068494v-342.268493c0-25.249315-15.430137-46.290411-32.263014-46.290411s-32.263014 21.041096-32.263014 46.290411c0 19.638356-15.430137 35.068493-35.068493 35.068493s-35.068493-15.430137-35.068493-35.068493c0-64.526027 46.290411-116.427397 102.4-116.427397s102.4 51.90137 102.4 116.427397V574.772603h37.873973c4.208219 0 8.416438 1.40274 11.221917 1.402739-1.40274-8.416438-2.805479-18.235616-2.805479-26.652054V461.150685c0-53.30411 36.471233-98.191781 85.567123-106.608219 2.805479-1.40274 7.013699-1.40274 9.819178-1.40274 16.832877 0 32.263014-18.235616 32.263014-37.873973v-88.372602c0-21.041096-14.027397-37.873973-32.263014-37.873973s-32.263014 18.235616-32.263013 37.873973c0 19.638356-15.430137 35.068493-35.068494 35.068493s-35.068493-15.430137-35.068493-35.068493c0-60.317808 46.290411-108.010959 102.4-108.010959s102.4 49.09589 102.4 108.010959v88.372602c0 53.30411-36.471233 98.191781-85.567123 106.60822-2.805479 1.40274-7.013699 1.40274-9.819178 1.402739-16.832877 0-32.263014 18.235616-32.263014 37.873973v88.372603c0 21.041096 14.027397 37.873973 30.860274 37.873972z"  horiz-adv-x="1024" />


    <glyph glyph-name="Vue" unicode="&#59289;" d="M615.6 772.4h165.5L512 306.29999999999995 242.9 772.4H63.5L512-4.399999999999977l448.5 776.9zM781.1 772.4H615.6L512 593 408.4 772.4H242.9L512 306.29999999999995z"  horiz-adv-x="1024" />


    <glyph glyph-name="fenlei1" unicode="&#58930;" d="M164.3 689.6c-29.8 0-54-24.2-54-54s24.2-54 54-54 54 24.2 54 54-24.2 54-54 54z m188.9-94h525c20.7 0 37.5 17.9 37.5 40s-16.8 40-37.5 40h-525c-20.7 0-37.5-17.9-37.5-40s16.8-40 37.5-40zM164.3 436.8c-29.8 0-54-24.2-54-54s24.2-54 54-54 54 24.2 54 54-24.2 54-54 54z m713.9-14h-525c-20.7 0-37.5-17.9-37.5-40s16.8-40 37.5-40h525c20.7 0 37.5 17.9 37.5 40s-16.8 40-37.5 40zM164.3 184c-29.8 0-54-24.2-54-54s24.2-54 54-54 54 24.2 54 54-24.2 54-54 54z m713.9-14h-525c-20.7 0-37.5-17.9-37.5-40s16.8-40 37.5-40h525c20.7 0 37.5 17.9 37.5 40s-16.8 40-37.5 40z"  horiz-adv-x="1024" />


    <glyph glyph-name="qq" unicode="&#58976;" d="M986.997202 221.271318l-2.645995 15.875969-5.29199 18.521964-2.645995 7.937984-2.645994 10.583979V284.775194l-2.645995 10.583979-5.29199 10.583979-5.29199 10.58398-7.937984 15.875969-5.29199 13.229974-5.291989 13.229974-5.29199 10.583979-5.29199 10.58398-10.583979 10.583979-10.583979 15.875969-13.229974 21.167959-2.645995 5.291989-2.645995 2.645995v2.645995l2.645995 5.29199 5.291989 5.291989 2.645995 13.229975 2.645995 5.291989v21.167959l-2.645995 7.937984-2.645995 7.937985-2.645994 10.583979V522.914729l-5.29199 7.937984-2.645995 7.937985-2.645995 7.937984-5.291989 5.29199-5.29199 7.937984-2.645995 5.29199-2.645995 2.645995-2.645995 18.521964-2.645994 10.583979-2.645995 15.875969-2.645995 15.875969-5.29199 18.521964 2.645995 7.937984-2.645995 7.937985-5.291989 10.583979-2.645995 10.583979-5.29199 7.937985-5.29199 10.583979-7.937984 18.521964-5.29199 10.583979-5.291989 10.58398-5.29199 7.937984V761.054264l-7.937985 10.583979-5.291989 7.937984-7.937985 10.58398-7.937984 7.937984-7.937985 7.937985-10.583979 7.937984-5.29199 5.29199-5.291989 5.29199-10.58398 5.291989-15.875969 10.58398-13.229974 7.937984-13.229974 5.29199-15.875969 5.291989-13.229974 7.937985-13.229974 5.29199-15.875969 5.291989-13.229975 5.29199-15.875969 5.29199-13.229974 2.645994-15.875969 2.645995-15.875969 2.645995-15.875969-2.645995h-63.503876l-15.875969-2.645995-7.937984-2.645994-15.875969-5.29199-13.229974-2.645995-15.875969-2.645995-13.229974-5.291989-13.229975-5.29199h-10.583979l-13.229974-5.29199-10.583979-5.291989-10.58398-5.29199-10.583979-5.29199-10.583979-5.291989-10.58398-7.937985-5.291989-7.937984-15.875969-10.58398-10.58398-13.229974-10.583979-15.875969-10.583979-10.583979-7.937985-13.229974-7.937984-10.58398-5.29199-10.583979-5.29199-5.29199-5.291989-5.291989-5.29199-10.58398-5.29199-10.583979-5.291989-10.583979-5.29199-10.58398-2.645995-10.583979-5.291989-7.937985-2.645995-10.583979-2.645995-7.937984-5.29199-15.875969-2.645995-15.875969-2.645994-13.229975-2.645995-10.583979v-21.167959l-5.29199-2.645994-2.645995-5.29199-2.645995-5.29199-2.645994-5.291989 2.645994-7.937985-2.645994-7.937984-2.645995-7.937985v-13.229974l-5.29199-10.583979-5.29199-7.937985-2.645994-7.937984-2.645995-5.29199-2.645995-7.937984V448.826873l2.645995-7.937984 2.645995-5.29199-5.29199-2.645995-7.937985-5.291989-13.229974-13.229974-7.937984-7.937985-5.29199-5.29199-5.29199-5.291989-5.291989-5.29199-10.58398-10.583979-7.937984-10.58398-5.29199-7.937984-7.937984-13.229974-10.58398-10.58398-7.937984-13.229974-5.29199-10.583979-5.291989-13.229974-5.29199-10.58398-5.29199-13.229974-5.291989-10.583979v-7.937985l-5.29199-13.229974-2.645995-7.937984-2.645995-10.58398-2.645995-10.583979v-58.211886l5.29199-15.875969v-5.29199l2.645995-5.291989 2.645995-5.29199 2.645995-5.29199 2.645994-5.291989 2.645995-2.645995 2.645995-2.645995v-2.645995H42.377047l5.291989 2.645995 5.29199 2.645995 7.937985 5.291989 5.291989 5.29199 7.937985 2.645995 5.291989 5.29199 5.29199 5.291989 5.29199 5.29199 5.291989 7.937984 5.29199 5.29199 2.645995 5.29199 5.29199 7.937984v5.29199l2.645994 2.645995V178.935401h2.645995l2.645995 2.645994v-2.645994h2.645995l2.645995-10.58398 2.645995-10.583979 5.291989-10.583979 5.29199-7.937985 2.645995-13.229974 5.291989-7.937985 5.29199-7.937984v-7.937985l5.29199-5.291989 2.645995-5.29199 10.583979-13.229974 10.583979-10.583979 7.937985-7.937985 7.937984-7.937984 7.937985-10.58398 10.583979-7.937984 5.29199-2.645995 2.645995-2.645995v-2.645995h-2.645995l-2.645995-2.645995H201.136737l-5.29199-2.645994H174.676788l-5.291989-5.29199-5.29199-2.645995-5.29199-2.645995-2.645994-2.645995-5.29199-2.645994H148.21684l-5.29199-5.29199-2.645994-2.645995-2.645995-5.29199-2.645995-5.291989-2.645995-5.29199-2.645995-5.29199v-10.583979l-2.645995-5.29199v-18.521963l2.645995-5.29199 2.645995-5.29199 2.645995-5.291989 2.645995-2.645995 2.645995-5.29199 2.645994-2.645995H150.862835l5.29199-5.291989 7.937984-5.29199 10.583979-5.29199 7.937985-5.291989 10.583979-5.29199h10.58398l10.583979-5.29199H227.596685l13.229974-2.645995 10.583979-2.645994h13.229975l26.459948-5.29199H370.480406l10.583979 2.645995h7.937985l7.937984 2.645995 15.875969 2.645994 7.937985 2.645995 10.583979 2.645995 15.875969 7.937985 7.937985 2.645994 5.291989 5.29199 13.229974 5.29199 13.229975 5.291989 5.291989 5.29199 5.29199 5.29199 10.583979-2.645995H545.116065l5.29199-2.645995 5.291989-2.645995 7.937985-2.645995 5.291989-2.645994 15.875969-5.29199 15.875969-5.29199 15.875969-5.291989 15.875969-5.29199 15.875969-2.645995 15.875969-2.645995 15.875969-2.645995 15.875969-2.645994 15.875969-2.645995h74.087856l15.875969 2.645995 13.229974 2.645994 10.583979 2.645995 13.229974 2.645995 10.58398 2.645995 5.291989 2.645995 5.29199 2.645995 10.583979 5.291989 7.937985 5.29199 7.937984 5.29199 5.29199 5.291989 5.29199 5.29199 5.291989 2.645995 2.645995 5.291989 5.29199 5.29199 5.291989 5.29199 2.645995 2.645995 2.645995 5.291989 2.645995 5.29199v13.229974l-2.645995 5.29199-2.645995 5.291989v5.29199l-5.291989 5.29199-2.645995 5.291989-5.29199 5.29199-15.875969-5.29199-7.937984 7.937985-10.58398 5.29199-10.583979 5.291989-10.583979 10.58398-23.813954 13.229974-5.29199 5.291989h-2.645994l-2.645995 2.645995 13.229974 13.229974 5.29199 5.29199 5.291989 5.29199 5.29199 13.229974 7.937984 10.583979 5.29199 10.58398 5.29199 10.583979 7.937984 21.167959 5.29199 18.521963 5.29199 10.58398 2.645994 5.291989 2.645995 5.29199 2.645995 2.645995h2.645995l5.29199-13.229974 5.291989-13.229974 5.29199-5.29199 5.29199-5.29199 5.291989-7.937984 5.29199-5.29199 5.291989-5.29199 2.645995-5.291989 5.29199-2.645995 2.645995-2.645995h2.645995l5.291989-5.29199h13.229974l2.645995 2.645995 5.29199 2.645995 2.645995 2.645995 5.291989 5.29199 2.645995 5.291989 5.29199 2.645995 2.645995 5.29199 2.645995 5.291989 2.645994 5.29199 2.645995 5.29199 2.645995 13.229974 5.29199 13.229974v13.229974l2.645995 7.937985v21.167958l-18.521964 7.937985z"  horiz-adv-x="1024" />


    <glyph glyph-name="sousuo1" unicode="&#58932;" d="M706.048 280.448l235.2-235.2-90.496-90.496-235.2 235.2a352 352 0 1 0 90.496 90.496zM416 256a224 224 0 1 1 0 448 224 224 0 0 1 0-448z"  horiz-adv-x="1024" />




  </font>
</defs>
</svg>
